<?xml version="1.0" encoding="UTF-8"?>
<!DOCTYPE svg PUBLIC "-//W3C//DTD SVG 1.1//EN" "http://www.w3.org/Graphics/SVG/1.1/DTD/svg11.dtd">
<svg xmlns="http://www.w3.org/2000/svg" version="1.1" width="500px" height="500px" style="shape-rendering:geometricPrecision; text-rendering:geometricPrecision; image-rendering:optimizeQuality; fill-rule:evenodd; clip-rule:evenodd" xmlns:xlink="http://www.w3.org/1999/xlink">
<g><path style="opacity:0.201" fill="#666f7b" d="M 329.5,3.5 C 274.336,4.49898 219.003,4.83232 163.5,4.5C 163.5,10.8333 163.5,17.1667 163.5,23.5C 163.5,26.8333 163.5,30.1667 163.5,33.5C 183.34,33.1696 203.007,33.5029 222.5,34.5C 202.326,34.8305 182.326,34.4971 162.5,33.5C 162.5,27.8333 162.5,22.1667 162.5,16.5C 162.5,13.8333 162.5,11.1667 162.5,8.5C 162.5,7.5 162.5,6.5 162.5,5.5C 217.823,3.5041 273.49,2.83743 329.5,3.5 Z"/></g>
<g><path style="opacity:1" fill="#1a1564" d="M 176.5,5.5 C 227.168,5.33334 277.834,5.50001 328.5,6C 329.771,11.8022 329.771,17.6356 328.5,23.5C 327.596,24.209 327.263,25.209 327.5,26.5C 325.362,26.297 323.695,25.297 322.5,23.5C 319.635,24.609 316.801,24.2757 314,22.5C 312.089,23.4453 310.089,23.4453 308,22.5C 305.812,22.354 304.479,23.354 304,25.5C 303.667,24.5 303.333,23.5 303,22.5C 298.52,24.0186 294.187,23.6853 290,21.5C 289.147,23.1247 288.147,23.4581 287,22.5C 284.581,24.2126 282.081,24.8793 279.5,24.5C 278.269,25.6507 278.269,26.8173 279.5,28C 276.975,28.8959 274.808,28.3959 273,26.5C 269.883,27.9628 266.717,28.2962 263.5,27.5C 257.701,29.1174 251.868,29.4507 246,28.5C 241.844,25.9838 237.511,23.9838 233,22.5C 230.584,23.0345 228.084,23.3678 225.5,23.5C 221.966,22.8687 218.466,22.202 215,21.5C 212.441,23.8535 210.274,23.6868 208.5,21C 205.901,20.231 203.401,20.3977 201,21.5C 200.25,20.8742 199.416,20.3742 198.5,20C 201.5,19.6667 204.5,19.3333 207.5,19C 206.167,18.3333 206.167,17.6667 207.5,17C 202.332,18.3243 196.999,18.6576 191.5,18C 192.747,16.5064 192.747,15.0064 191.5,13.5C 190.749,14.376 190.249,15.376 190,16.5C 188.243,10.9791 184.576,8.97908 179,10.5C 178.692,9.69194 178.192,9.02527 177.5,8.5C 176.289,9.2739 176.289,10.1072 177.5,11C 176.667,11.8333 175.833,12.6667 175,13.5C 173.951,12.4829 172.784,12.3162 171.5,13C 171.833,13.3333 172.167,13.6667 172.5,14C 171.167,15 169.833,16 168.5,17C 168.833,17.3333 169.167,17.6667 169.5,18C 168.5,18.5 167.5,19 166.5,19.5C 165.34,15.5411 165.173,11.5411 166,7.5C 169.603,6.86485 173.103,6.19818 176.5,5.5 Z"/></g>
<g><path style="opacity:0.588" fill="#5e8b62" d="M 162.5,5.5 C 162.5,6.5 162.5,7.5 162.5,8.5C 134.328,8.1687 106.328,8.50204 78.5,9.5C 75.8333,9.5 73.1667,9.5 70.5,9.5C 71.9516,8.69808 73.6183,8.19808 75.5,8C 104.723,8.14705 133.723,7.31372 162.5,5.5 Z"/></g>
<g><path style="opacity:0.611" fill="#558559" d="M 331.5,7.5 C 361.671,7.16857 391.671,7.5019 421.5,8.5C 391.833,8.5 362.167,8.5 332.5,8.5C 332.5,11.1667 332.5,13.8333 332.5,16.5C 332.167,16.5 331.833,16.5 331.5,16.5C 331.5,13.5 331.5,10.5 331.5,7.5 Z"/></g>
<g><path style="opacity:1" fill="#116614" d="M 70.5,9.5 C 73.1667,9.5 75.8333,9.5 78.5,9.5C 106.167,9.5 133.833,9.5 161.5,9.5C 161.643,11.2624 161.309,12.9291 160.5,14.5C 131.506,15.3332 102.506,15.8332 73.5,16C 67.3152,17.4247 61.3152,19.4247 55.5,22C 53.4556,22.4983 52.1223,23.665 51.5,25.5C 47.2811,24.979 43.6145,26.1457 40.5,29C 35.6501,32.5166 31.4834,36.6833 28,41.5C 26.9614,40.7562 26.4614,39.7562 26.5,38.5C 30.6299,33.8688 34.9633,29.3688 39.5,25C 46.7633,20.2117 54.0967,15.7117 61.5,11.5C 64.3033,10.0721 67.3033,9.40542 70.5,9.5 Z"/></g>
<g><path style="opacity:1" fill="#136616" d="M 421.5,8.5 C 425.764,8.3442 429.764,9.01086 433.5,10.5C 433.082,11.2216 432.416,11.7216 431.5,12C 436.166,14.754 441.166,16.754 446.5,18C 450.446,20.5568 454.613,22.7235 459,24.5C 460.394,25.6133 461.561,26.9466 462.5,28.5C 462,28.8333 461.5,29.1667 461,29.5C 452.955,24.1124 444.122,20.779 434.5,19.5C 429.545,18.4762 424.545,17.6428 419.5,17C 390.502,16.5 361.502,16.3334 332.5,16.5C 332.5,13.8333 332.5,11.1667 332.5,8.5C 362.167,8.5 391.833,8.5 421.5,8.5 Z"/></g>
<g><path style="opacity:0.631" fill="#2b5c27" d="M 78.5,9.5 C 106.328,8.50204 134.328,8.1687 162.5,8.5C 162.5,11.1667 162.5,13.8333 162.5,16.5C 135.171,17.3336 107.838,17.5003 80.5,17C 70.3053,18.1214 60.6386,20.9547 51.5,25.5C 52.1223,23.665 53.4556,22.4983 55.5,22C 61.3152,19.4247 67.3152,17.4247 73.5,16C 102.506,15.8332 131.506,15.3332 160.5,14.5C 161.309,12.9291 161.643,11.2624 161.5,9.5C 133.833,9.5 106.167,9.5 78.5,9.5 Z"/></g>
<g><path style="opacity:1" fill="#1a0e60" d="M 176.5,5.5 C 173.103,6.19818 169.603,6.86485 166,7.5C 165.173,11.5411 165.34,15.5411 166.5,19.5C 167.5,19 168.5,18.5 169.5,18C 169.167,17.6667 168.833,17.3333 168.5,17C 169.833,16 171.167,15 172.5,14C 172.167,13.6667 171.833,13.3333 171.5,13C 172.784,12.3162 173.951,12.4829 175,13.5C 175.833,12.6667 176.667,11.8333 177.5,11C 176.289,10.1072 176.289,9.2739 177.5,8.5C 178.192,9.02527 178.692,9.69194 179,10.5C 184.576,8.97908 188.243,10.9791 190,16.5C 190.249,15.376 190.749,14.376 191.5,13.5C 192.747,15.0064 192.747,16.5064 191.5,18C 196.999,18.6576 202.332,18.3243 207.5,17C 206.167,17.6667 206.167,18.3333 207.5,19C 204.5,19.3333 201.5,19.6667 198.5,20C 199.416,20.3742 200.25,20.8742 201,21.5C 203.401,20.3977 205.901,20.231 208.5,21C 210.274,23.6868 212.441,23.8535 215,21.5C 218.466,22.202 221.966,22.8687 225.5,23.5C 228.084,23.3678 230.584,23.0345 233,22.5C 237.511,23.9838 241.844,25.9838 246,28.5C 251.868,29.4507 257.701,29.1174 263.5,27.5C 266.717,28.2962 269.883,27.9628 273,26.5C 274.808,28.3959 276.975,28.8959 279.5,28C 278.269,26.8173 278.269,25.6507 279.5,24.5C 282.081,24.8793 284.581,24.2126 287,22.5C 288.147,23.4581 289.147,23.1247 290,21.5C 294.187,23.6853 298.52,24.0186 303,22.5C 303.333,23.5 303.667,24.5 304,25.5C 304.479,23.354 305.812,22.354 308,22.5C 310.089,23.4453 312.089,23.4453 314,22.5C 316.801,24.2757 319.635,24.609 322.5,23.5C 323.695,25.297 325.362,26.297 327.5,26.5C 327.263,25.209 327.596,24.209 328.5,23.5C 328.326,25.861 327.993,28.1944 327.5,30.5C 310.497,30.3334 293.497,30.5001 276.5,31C 273.447,31.1786 270.447,31.6786 267.5,32.5C 266.757,33.1818 266.091,33.8485 265.5,34.5C 265.5,34.8333 265.5,35.1667 265.5,35.5C 263.5,36.1667 261.5,36.8333 259.5,37.5C 255.332,38.9032 250.999,39.9032 246.5,40.5C 243.325,39.3039 240.325,37.8039 237.5,36C 233.338,35.474 229.338,34.474 225.5,33C 205.825,32.833 186.158,32.333 166.5,31.5C 164.777,29.1324 164.11,26.4658 164.5,23.5C 164.5,17.5 164.5,11.5 164.5,5.5C 168.5,5.5 172.5,5.5 176.5,5.5 Z"/></g>
<g><path style="opacity:1" fill="#130e42" d="M 329.5,3.5 C 329.833,3.5 330.167,3.5 330.5,3.5C 330.666,11.1739 330.5,18.8406 330,26.5C 329.837,28.676 329.004,30.5093 327.5,32C 308.833,32.3333 290.167,32.6667 271.5,33C 269.564,33.813 267.564,34.313 265.5,34.5C 266.091,33.8485 266.757,33.1818 267.5,32.5C 270.447,31.6786 273.447,31.1786 276.5,31C 293.497,30.5001 310.497,30.3334 327.5,30.5C 327.993,28.1944 328.326,25.861 328.5,23.5C 329.771,17.6356 329.771,11.8022 328.5,6C 277.834,5.50001 227.168,5.33334 176.5,5.5C 172.5,5.5 168.5,5.5 164.5,5.5C 164.5,11.5 164.5,17.5 164.5,23.5C 164.167,23.5 163.833,23.5 163.5,23.5C 163.5,17.1667 163.5,10.8333 163.5,4.5C 219.003,4.83232 274.336,4.49898 329.5,3.5 Z"/></g>
<g><path style="opacity:1" fill="#246821" d="M 433.5,10.5 C 458.831,16.8405 476.831,31.8405 487.5,55.5C 486.265,55.2786 485.265,54.6119 484.5,53.5C 484.167,53.8333 483.833,54.1667 483.5,54.5C 484.52,56.4325 484.687,58.4325 484,60.5C 483.4,58.0904 482.234,56.0904 480.5,54.5C 479.277,51.7261 477.777,49.0594 476,46.5C 471.382,42.3834 466.882,38.0501 462.5,33.5C 460.925,32.5435 459.258,31.8769 457.5,31.5C 450.208,26.6883 442.542,22.6883 434.5,19.5C 444.122,20.779 452.955,24.1124 461,29.5C 461.5,29.1667 462,28.8333 462.5,28.5C 461.561,26.9466 460.394,25.6133 459,24.5C 454.613,22.7235 450.446,20.5568 446.5,18C 441.166,16.754 436.166,14.754 431.5,12C 432.416,11.7216 433.082,11.2216 433.5,10.5 Z"/></g>
<g><path style="opacity:1" fill="#162730" d="M 330.5,3.5 C 331.434,4.56764 331.768,5.90097 331.5,7.5C 331.5,10.5 331.5,13.5 331.5,16.5C 331.5,22.1667 331.5,27.8333 331.5,33.5C 330.833,33.5 330.167,33.5 329.5,33.5C 310.497,33.3334 291.497,33.5001 272.5,34C 270.26,34.977 267.927,35.477 265.5,35.5C 265.5,35.1667 265.5,34.8333 265.5,34.5C 267.564,34.313 269.564,33.813 271.5,33C 290.167,32.6667 308.833,32.3333 327.5,32C 329.004,30.5093 329.837,28.676 330,26.5C 330.5,18.8406 330.666,11.1739 330.5,3.5 Z"/></g>
<g><path style="opacity:0.805" fill="#4f6d4e" d="M 151.5,33.5 C 151.5,33.8333 151.5,34.1667 151.5,34.5C 125.5,34.5 99.5,34.5 73.5,34.5C 99.3985,33.0632 125.398,32.7298 151.5,33.5 Z"/></g>
<g><path style="opacity:1" fill="#074b0b" d="M 73.5,34.5 C 99.5,34.5 125.5,34.5 151.5,34.5C 154.85,34.335 158.183,34.5017 161.5,35C 160.207,35.49 158.873,35.6567 157.5,35.5C 129.831,35.3334 102.165,35.5 74.5,36C 69.9239,38.1235 65.2573,39.9569 60.5,41.5C 64.4188,38.3743 68.7521,36.041 73.5,34.5 Z"/></g>
<g><path style="opacity:1" fill="#25794a" d="M 329.5,33.5 C 330.167,34.1667 330.833,34.8333 331.5,35.5C 311.497,35.3334 291.497,35.5 271.5,36C 269.5,36.3333 267.5,36.6667 265.5,37C 262.128,39.8282 258.461,41.9949 254.5,43.5C 253.167,43.8333 251.833,44.1667 250.5,44.5C 253.319,41.925 256.319,39.5917 259.5,37.5C 261.5,36.8333 263.5,36.1667 265.5,35.5C 267.927,35.477 270.26,34.977 272.5,34C 291.497,33.5001 310.497,33.3334 329.5,33.5 Z"/></g>
<g><path style="opacity:0.939" fill="#386635" d="M 461.5,66.5 C 457.316,59.6351 452.316,53.3018 446.5,47.5C 440.589,43.7159 434.589,40.2159 428.5,37C 396.208,35.5366 363.875,35.0366 331.5,35.5C 330.833,34.8333 330.167,34.1667 329.5,33.5C 330.167,33.5 330.833,33.5 331.5,33.5C 334.989,33.1373 338.489,32.804 342,32.5C 370.205,32.9867 398.372,33.8201 426.5,35C 443.445,39.7854 455.112,50.2854 461.5,66.5 Z"/></g>
<g><path style="opacity:1" fill="#167835" d="M 151.5,34.5 C 151.5,34.1667 151.5,33.8333 151.5,33.5C 155.167,33.5 158.833,33.5 162.5,33.5C 182.326,34.4971 202.326,34.8305 222.5,34.5C 231.214,35.7949 239.214,38.9616 246.5,44C 247.793,44.49 249.127,44.6567 250.5,44.5C 251.833,44.1667 253.167,43.8333 254.5,43.5C 246.118,46.354 238.451,44.6874 231.5,38.5C 208.643,37.1823 185.81,37.1823 163,38.5C 161.141,37.3246 159.308,36.3246 157.5,35.5C 158.873,35.6567 160.207,35.49 161.5,35C 158.183,34.5017 154.85,34.335 151.5,34.5 Z"/></g>
<g><path style="opacity:1" fill="#067a15" d="M 228.5,40.5 C 228.279,41.7348 227.612,42.7348 226.5,43.5C 226.833,44.1667 227.167,44.8333 227.5,45.5C 225.5,46.3333 223.5,47.1667 221.5,48C 223.044,48.2896 224.377,48.9563 225.5,50C 224.551,50.6172 223.718,50.4506 223,49.5C 222.313,51.5675 222.48,53.5675 223.5,55.5C 222.675,56.3857 221.675,56.719 220.5,56.5C 220.833,58.5 221.167,60.5 221.5,62.5C 225.203,62.6463 227.87,64.4796 229.5,68C 228.549,68.7175 228.383,69.5509 229,70.5C 230.952,71.7002 232.452,71.2002 233.5,69C 231.842,68.2747 231.342,67.108 232,65.5C 238.517,67.946 243.684,66.2793 247.5,60.5C 248.425,61.6405 249.259,61.6405 250,60.5C 250.494,58.8659 250.66,57.1992 250.5,55.5C 251.5,55.5 252.5,55.5 253.5,55.5C 253.5,53.8333 253.5,52.1667 253.5,50.5C 256.272,50.78 258.772,50.1134 261,48.5C 262.02,49.8905 262.853,51.3905 263.5,53C 264.784,53.6838 265.951,53.5171 267,52.5C 271.228,55.2626 275.728,57.5959 280.5,59.5C 279.756,62.443 279.256,65.443 279,68.5C 277.676,69.8802 276.343,70.2135 275,69.5C 274.667,70.5 274.333,71.5 274,72.5C 273.667,72.1667 273.333,71.8333 273,71.5C 271.307,73.0267 269.473,74.3601 267.5,75.5C 264.052,73.5576 261.385,74.2242 259.5,77.5C 262.136,79.064 261.969,80.3974 259,81.5C 258.667,81.1667 258.333,80.8333 258,80.5C 257.365,81.9663 256.531,83.2997 255.5,84.5C 258.03,85.1319 260.363,86.1319 262.5,87.5C 263.058,90.7704 264.058,93.7704 265.5,96.5C 253.167,96.5 240.833,96.5 228.5,96.5C 232.365,82.7347 227.365,74.7347 213.5,72.5C 175.004,71.5015 136.337,71.1681 97.5,71.5C 97.6107,70.8826 97.944,70.3826 98.5,70C 96.1329,69.626 94.2995,68.4593 93,66.5C 91.4029,67.8847 89.5695,68.5514 87.5,68.5C 86.7655,65.7279 86.5988,63.0613 87,60.5C 84.0767,59.0441 81.0767,57.7108 78,56.5C 76.9895,56.8919 76.4895,57.5585 76.5,58.5C 75.8076,57.9747 75.3076,57.3081 75,56.5C 71.6999,58.3024 68.5332,60.3024 65.5,62.5C 64.8076,61.9747 64.3076,61.3081 64,60.5C 59.7108,62.5408 55.2108,63.8742 50.5,64.5C 50.5875,67.5983 50.0875,67.9316 49,65.5C 48.2496,66.1258 47.4162,66.6258 46.5,67C 46.8333,67.3333 47.1667,67.6667 47.5,68C 45.393,69.2635 44.393,71.0968 44.5,73.5C 42.1667,74.1667 39.8333,74.8333 37.5,75.5C 37.8633,77.9115 36.8633,79.4115 34.5,80C 35.1159,81.4002 35.4493,82.9002 35.5,84.5C 35.639,86.8825 34.9723,88.8825 33.5,90.5C 33.3345,86.4862 33.5012,82.4862 34,78.5C 35.8134,73.3865 37.8134,68.3865 40,63.5C 43.6532,60.2234 46.1532,56.2234 47.5,51.5C 47.8333,50.5 48.5,49.8333 49.5,49.5C 51.5441,48.9688 53.2107,47.8022 54.5,46C 56.1124,45.2797 57.6124,45.4464 59,46.5C 62.7546,44.3725 66.5879,42.3725 70.5,40.5C 71.086,40.7093 71.586,41.0426 72,41.5C 76.3694,39.949 80.8694,38.7824 85.5,38C 109.16,37.1128 132.826,36.6128 156.5,36.5C 156.44,40.3273 157.607,40.994 160,38.5C 160.667,39.1667 161.333,39.8333 162,40.5C 184.377,39.7378 206.543,39.7378 228.5,40.5 Z"/></g>
<g><path style="opacity:1" fill="#13193d" d="M 163.5,23.5 C 163.833,23.5 164.167,23.5 164.5,23.5C 164.11,26.4658 164.777,29.1324 166.5,31.5C 186.158,32.333 205.825,32.833 225.5,33C 229.338,34.474 233.338,35.474 237.5,36C 240.325,37.8039 243.325,39.3039 246.5,40.5C 250.999,39.9032 255.332,38.9032 259.5,37.5C 256.319,39.5917 253.319,41.925 250.5,44.5C 249.127,44.6567 247.793,44.49 246.5,44C 239.214,38.9616 231.214,35.7949 222.5,34.5C 203.007,33.5029 183.34,33.1696 163.5,33.5C 163.5,30.1667 163.5,26.8333 163.5,23.5 Z"/></g>
<g><path style="opacity:1" fill="#037816" d="M 461.5,361.5 C 460.717,359.657 460.05,357.657 459.5,355.5C 459.363,326.112 459.696,296.612 460.5,267C 459.833,264 459.167,261 458.5,258C 459.064,208.769 459.73,159.603 460.5,110.5C 458.338,105.17 457.004,99.67 456.5,94C 456.833,93.6667 457.167,93.3333 457.5,93C 456.798,89.819 455.464,86.9857 453.5,84.5C 451.782,82.2804 450.948,79.9471 451,77.5C 450.667,77.8333 450.333,78.1667 450,78.5C 449.5,77.3333 448.667,76.5 447.5,76C 448.552,74.2835 447.886,73.2835 445.5,73C 446.451,72.2825 446.617,71.4491 446,70.5C 440.805,70.2232 439.305,67.7232 441.5,63C 439.998,60.4842 438.498,57.9842 437,55.5C 435.325,56.5955 434.158,58.0955 433.5,60C 431.5,59.6667 429.5,59.3333 427.5,59C 426.594,60.6995 426.261,62.5328 426.5,64.5C 431.243,64.1859 431.576,65.5193 427.5,68.5C 431.481,69.4943 431.481,70.4943 427.5,71.5C 426.914,71.2907 426.414,70.9574 426,70.5C 425.768,71.7375 425.268,72.7375 424.5,73.5C 422.901,72.438 421.234,72.438 419.5,73.5C 372.541,72.3434 325.541,72.1767 278.5,73C 268.068,77.3605 264.068,85.1938 266.5,96.5C 266.167,96.5 265.833,96.5 265.5,96.5C 264.058,93.7704 263.058,90.7704 262.5,87.5C 260.363,86.1319 258.03,85.1319 255.5,84.5C 256.531,83.2997 257.365,81.9663 258,80.5C 258.333,80.8333 258.667,81.1667 259,81.5C 261.969,80.3974 262.136,79.064 259.5,77.5C 261.385,74.2242 264.052,73.5576 267.5,75.5C 269.473,74.3601 271.307,73.0267 273,71.5C 273.333,71.8333 273.667,72.1667 274,72.5C 274.333,71.5 274.667,70.5 275,69.5C 276.343,70.2135 277.676,69.8802 279,68.5C 279.256,65.443 279.756,62.443 280.5,59.5C 275.728,57.5959 271.228,55.2626 267,52.5C 265.951,53.5171 264.784,53.6838 263.5,53C 262.853,51.3905 262.02,49.8905 261,48.5C 258.772,50.1134 256.272,50.78 253.5,50.5C 253.5,52.1667 253.5,53.8333 253.5,55.5C 252.5,55.5 251.5,55.5 250.5,55.5C 250.66,57.1992 250.494,58.8659 250,60.5C 249.259,61.6405 248.425,61.6405 247.5,60.5C 243.684,66.2793 238.517,67.946 232,65.5C 231.342,67.108 231.842,68.2747 233.5,69C 232.452,71.2002 230.952,71.7002 229,70.5C 228.383,69.5509 228.549,68.7175 229.5,68C 227.87,64.4796 225.203,62.6463 221.5,62.5C 221.167,60.5 220.833,58.5 220.5,56.5C 221.675,56.719 222.675,56.3857 223.5,55.5C 222.48,53.5675 222.313,51.5675 223,49.5C 223.718,50.4506 224.551,50.6172 225.5,50C 224.377,48.9563 223.044,48.2896 221.5,48C 223.5,47.1667 225.5,46.3333 227.5,45.5C 227.167,44.8333 226.833,44.1667 226.5,43.5C 227.612,42.7348 228.279,41.7348 228.5,40.5C 232.179,41.3738 235.512,42.8738 238.5,45C 237.216,46.2975 237.383,47.4642 239,48.5C 240.085,47.7069 241.252,47.0402 242.5,46.5C 246.316,48.1851 250.149,48.8518 254,48.5C 258.112,45.5264 262.612,43.193 267.5,41.5C 267.167,40.8333 266.833,40.1667 266.5,39.5C 267.667,39.1667 268.833,38.8333 270,38.5C 312.999,38.9001 356.833,38.9001 401.5,38.5C 407.663,38.901 413.663,40.0676 419.5,42C 418.304,42.6543 418.304,43.1543 419.5,43.5C 420.167,43.1667 420.833,42.8333 421.5,42.5C 422.362,45.4201 424.028,46.4201 426.5,45.5C 427.731,46.6507 427.731,47.8173 426.5,49C 427,49.1667 427.5,49.3333 428,49.5C 429.15,48.5761 430.15,48.5761 431,49.5C 431.617,48.5509 431.451,47.7175 430.5,47C 432.108,46.342 433.275,46.842 434,48.5C 435.604,47.3507 437.27,47.3507 439,48.5C 441.561,50.0599 443.394,52.2265 444.5,55C 451.589,57.0406 456.422,61.5406 459,68.5C 459.667,72.5 460.333,76.5 461,80.5C 461.5,174.166 461.667,267.833 461.5,361.5 Z"/></g>
<g><path style="opacity:1" fill="#3d6337" d="M 61.5,11.5 C 54.0967,15.7117 46.7633,20.2117 39.5,25C 34.9633,29.3688 30.6299,33.8688 26.5,38.5C 23.8947,40.337 21.728,42.6703 20,45.5C 15.1126,53.2794 11.2792,61.6127 8.5,70.5C 7.68618,72.631 7.18618,74.9644 7,77.5C 6.5,186.499 6.33333,295.499 6.5,404.5C 5.3341,295.334 5.16743,186.001 6,76.5C 10.0162,52.2777 22.1828,33.4443 42.5,20C 48.588,16.6228 54.9213,13.7894 61.5,11.5 Z"/></g>
<g><path style="opacity:0.949" fill="#1d3d1d" d="M 73.5,34.5 C 68.7521,36.041 64.4188,38.3743 60.5,41.5C 55.9391,42.9462 52.2724,45.6129 49.5,49.5C 48.5,49.8333 47.8333,50.5 47.5,51.5C 44.1195,53.8797 41.4528,56.8797 39.5,60.5C 38.8333,60.5 38.1667,60.5 37.5,60.5C 45.2441,46.1091 57.2441,37.4424 73.5,34.5 Z"/></g>
<g><path style="opacity:1" fill="#1b6018" d="M 51.5,25.5 C 28.5326,39.8113 15.8659,60.478 13.5,87.5C 13.1667,87.5 12.8333,87.5 12.5,87.5C 11.6787,90.6414 11.1787,93.9748 11,97.5C 10.1927,195.175 10.3594,292.842 11.5,390.5C 11.0276,388.469 10.0276,386.802 8.5,385.5C 9.73102,280.506 9.73102,175.506 8.5,70.5C 11.2792,61.6127 15.1126,53.2794 20,45.5C 21.728,42.6703 23.8947,40.337 26.5,38.5C 26.4614,39.7562 26.9614,40.7562 28,41.5C 31.4834,36.6833 35.6501,32.5166 40.5,29C 43.6145,26.1457 47.2811,24.979 51.5,25.5 Z"/></g>
<g><path style="opacity:1" fill="#0f7a10" d="M 97.5,71.5 C 91.1134,70.8894 84.78,70.8894 78.5,71.5C 77.8128,69.4453 76.6461,67.7786 75,66.5C 72.2282,70.6013 68.3949,73.1013 63.5,74C 64.1667,74.3333 64.8333,74.6667 65.5,75C 64.2068,75.49 62.8734,75.6567 61.5,75.5C 61.7157,78.4317 61.049,81.0983 59.5,83.5C 60.5843,87.4554 60.5843,91.6221 59.5,96C 59.3757,98.59 60.0423,100.923 61.5,103C 60.8333,104 60.1667,105 59.5,106C 60.0771,196.009 60.0771,290.009 59.5,388C 60.9308,388.465 62.0975,389.299 63,390.5C 63.3333,389.5 63.6667,388.5 64,387.5C 65.1397,390.528 64.3064,392.695 61.5,394C 62.2738,396.44 63.9405,397.773 66.5,398C 66.2093,400.294 65.2093,402.627 63.5,405C 63.5699,405.765 63.9033,406.265 64.5,406.5C 62.8679,409.133 60.8679,411.467 58.5,413.5C 57.3058,415.77 57.3058,417.937 58.5,420C 61.6503,423.321 64.6503,426.821 67.5,430.5C 69.437,431.158 71.2703,431.491 73,431.5C 73.3076,430.692 73.8076,430.025 74.5,429.5C 77.4732,430.81 79.8065,432.81 81.5,435.5C 87.8571,438.252 94.3571,438.919 101,437.5C 101.667,438.167 102.333,438.833 103,439.5C 106.136,439.229 109.303,438.896 112.5,438.5C 144.167,439.167 175.833,439.833 207.5,440.5C 210.028,439.483 210.028,438.316 207.5,437C 208.416,436.626 209.25,436.126 210,435.5C 212.169,439.815 214.503,440.148 217,436.5C 217.456,437.744 216.956,438.577 215.5,439C 217.135,439.54 218.468,439.04 219.5,437.5C 220.609,438.59 221.609,438.59 222.5,437.5C 221.975,436.808 221.308,436.308 220.5,436C 221,435.833 221.5,435.667 222,435.5C 223.393,436.615 224.893,437.115 226.5,437C 225.549,436.282 225.383,435.449 226,434.5C 226.779,435.728 227.779,436.728 229,437.5C 229.5,437.167 230,436.833 230.5,436.5C 229.833,436.167 229.167,435.833 228.5,435.5C 228.833,434.5 229.5,433.833 230.5,433.5C 233.101,436.001 235.601,436.001 238,433.5C 238.667,434.167 239.333,434.833 240,435.5C 243.528,434.016 247.194,433.016 251,432.5C 251.5,433 252,433.5 252.5,434C 250.416,434.697 248.749,435.864 247.5,437.5C 245.127,438.694 242.793,439.027 240.5,438.5C 239.614,439.325 239.281,440.325 239.5,441.5C 236.266,441.205 233.266,441.871 230.5,443.5C 231.152,445.45 230.152,446.45 227.5,446.5C 176.481,446.811 125.481,446.477 74.5,445.5C 72.396,445.799 70.396,445.466 68.5,444.5C 64.3214,442.11 59.9881,440.11 55.5,438.5C 53.7274,437.108 51.7274,435.941 49.5,435C 48.0016,432.336 46.0016,430.17 43.5,428.5C 43.6816,426.409 43.3482,424.409 42.5,422.5C 38.766,419.694 36.0993,416.027 34.5,411.5C 33.5,304.502 33.1667,197.502 33.5,90.5C 34.9723,88.8825 35.639,86.8825 35.5,84.5C 35.4493,82.9002 35.1159,81.4002 34.5,80C 36.8633,79.4115 37.8633,77.9115 37.5,75.5C 39.8333,74.8333 42.1667,74.1667 44.5,73.5C 44.393,71.0968 45.393,69.2635 47.5,68C 47.1667,67.6667 46.8333,67.3333 46.5,67C 47.4162,66.6258 48.2496,66.1258 49,65.5C 50.0875,67.9316 50.5875,67.5983 50.5,64.5C 55.2108,63.8742 59.7108,62.5408 64,60.5C 64.3076,61.3081 64.8076,61.9747 65.5,62.5C 68.5332,60.3024 71.6999,58.3024 75,56.5C 75.3076,57.3081 75.8076,57.9747 76.5,58.5C 76.4895,57.5585 76.9895,56.8919 78,56.5C 81.0767,57.7108 84.0767,59.0441 87,60.5C 86.5988,63.0613 86.7655,65.7279 87.5,68.5C 89.5695,68.5514 91.4029,67.8847 93,66.5C 94.2995,68.4593 96.1329,69.626 98.5,70C 97.944,70.3826 97.6107,70.8826 97.5,71.5 Z"/></g>
<g><path style="opacity:1" fill="#0c7514" d="M 97.5,71.5 C 136.337,71.1681 175.004,71.5015 213.5,72.5C 170.499,72.3333 127.499,72.5 84.5,73C 83.0993,73.4101 81.766,73.9101 80.5,74.5C 76.264,74.7679 73.0973,76.7679 71,80.5C 70.0064,188.223 70.3398,295.889 72,403.5C 74.5933,406.543 77.76,408.71 81.5,410C 127.002,410.831 172.335,410.665 217.5,409.5C 220.957,408.606 223.957,406.94 226.5,404.5C 227.117,404.389 227.617,404.056 228,403.5C 228.988,400.576 229.654,397.576 230,394.5C 238.698,392.556 247.532,392.056 256.5,393C 258.321,395.456 258.988,398.289 258.5,401.5C 257.698,400.048 257.198,398.382 257,396.5C 256.311,395.643 255.478,394.977 254.5,394.5C 251.028,394.856 247.361,395.523 243.5,396.5C 240.91,394.62 239.41,395.286 239,398.5C 235.962,394.65 234.295,394.983 234,399.5C 231.266,400.362 231.099,401.195 233.5,402C 232,403.833 230.5,405.667 229,407.5C 228.316,408.784 228.483,409.951 229.5,411C 228.551,411.617 227.718,411.451 227,410.5C 226.395,412.481 225.395,412.815 224,411.5C 220.533,412.798 217.033,414.131 213.5,415.5C 211.833,414.667 210.167,413.833 208.5,413C 176.928,412.171 145.428,412.338 114,413.5C 101.729,412.751 89.3961,412.084 77,411.5C 74.254,411.623 71.9207,412.623 70,414.5C 69.3828,413.551 69.5494,412.718 70.5,412C 68.6298,409.96 66.6298,408.127 64.5,406.5C 63.9033,406.265 63.5699,405.765 63.5,405C 65.2093,402.627 66.2093,400.294 66.5,398C 63.9405,397.773 62.2738,396.44 61.5,394C 64.3064,392.695 65.1397,390.528 64,387.5C 63.6667,388.5 63.3333,389.5 63,390.5C 62.0975,389.299 60.9308,388.465 59.5,388C 60.0771,290.009 60.0771,196.009 59.5,106C 60.1667,105 60.8333,104 61.5,103C 60.0423,100.923 59.3757,98.59 59.5,96C 60.5843,91.6221 60.5843,87.4554 59.5,83.5C 61.049,81.0983 61.7157,78.4317 61.5,75.5C 62.8734,75.6567 64.2068,75.49 65.5,75C 64.8333,74.6667 64.1667,74.3333 63.5,74C 68.3949,73.1013 72.2282,70.6013 75,66.5C 76.6461,67.7786 77.8128,69.4453 78.5,71.5C 84.78,70.8894 91.1134,70.8894 97.5,71.5 Z"/></g>
<g><path style="opacity:1" fill="#0c4f0b" d="M 419.5,73.5 C 419.833,74.1667 420.167,74.8333 420.5,75.5C 419.078,75.2914 417.745,74.7914 416.5,74C 370.833,73.3333 325.167,73.3333 279.5,74C 278.584,74.2784 277.918,74.7784 277.5,75.5C 271.16,78.8647 268.16,84.198 268.5,91.5C 267.549,92.9187 267.216,94.5853 267.5,96.5C 267.167,96.5 266.833,96.5 266.5,96.5C 264.068,85.1938 268.068,77.3605 278.5,73C 325.541,72.1767 372.541,72.3434 419.5,73.5 Z"/></g>
<g><path style="opacity:0.764" fill="#3f6937" d="M 213.5,72.5 C 227.365,74.7347 232.365,82.7347 228.5,96.5C 240.833,96.5 253.167,96.5 265.5,96.5C 265.833,96.5 266.167,96.5 266.5,96.5C 254.011,97.4954 241.344,97.8287 228.5,97.5C 228.167,97.5 227.833,97.5 227.5,97.5C 226.836,92.5318 226.336,87.5318 226,82.5C 224.5,79.6667 222.333,77.5 219.5,76C 173.168,75.5 126.835,75.3333 80.5,75.5C 80.5,75.1667 80.5,74.8333 80.5,74.5C 81.766,73.9101 83.0993,73.4101 84.5,73C 127.499,72.5 170.499,72.3333 213.5,72.5 Z"/></g>
<g><path style="opacity:1" fill="#0e790d" d="M 453.5,84.5 C 453.629,90.8783 453.629,97.3783 453.5,104C 456.167,104.667 456.167,105.333 453.5,106C 453.966,108.886 454.633,112.053 455.5,115.5C 454.687,184.805 454.52,254.472 455,324.5C 455.251,326.433 455.751,328.266 456.5,330C 455.714,337.353 455.381,344.686 455.5,352C 456.592,355.55 457.259,359.217 457.5,363C 456.855,369.822 456.355,376.655 456,383.5C 455.667,383.167 455.333,382.833 455,382.5C 454.933,385.047 454.099,387.214 452.5,389C 454.211,391.456 455.544,394.123 456.5,397C 453.835,399.817 453.168,402.983 454.5,406.5C 454.099,408.434 453.099,409.934 451.5,411C 452.167,411.333 452.833,411.667 453.5,412C 451.667,415.167 449.167,417.667 446,419.5C 445.119,417.726 443.953,417.06 442.5,417.5C 443.912,416.194 445.579,415.36 447.5,415C 446.552,414.517 445.552,414.351 444.5,414.5C 443.905,410.607 444.905,406.94 447.5,403.5C 447.167,403.167 446.833,402.833 446.5,402.5C 445.024,405.143 443.024,407.31 440.5,409C 441.167,409.667 441.833,410.333 442.5,411C 440.939,412.86 439.272,414.026 437.5,414.5C 436.636,412.803 435.303,411.637 433.5,411C 436.276,409.221 435.943,408.221 432.5,408C 434.608,405.693 435.941,403.36 436.5,401C 435.351,399.256 434.017,399.089 432.5,400.5C 432.167,399.667 431.833,398.833 431.5,398C 431.933,396.072 432.6,394.239 433.5,392.5C 433.392,391.558 433.059,390.725 432.5,390C 433.308,389.692 433.975,389.192 434.5,388.5C 433.585,387.672 432.919,386.672 432.5,385.5C 434.346,381.389 433.679,377.889 430.5,375C 430.212,372.978 430.546,370.811 431.5,368.5C 430.747,362.196 430.247,355.863 430,349.5C 429.521,286.232 429.355,223.065 429.5,160C 430.167,151 430.833,142 431.5,133C 430.766,121.675 430.432,110.342 430.5,99C 432.434,96.7287 432.434,94.7287 430.5,93C 430.957,92.586 431.291,92.086 431.5,91.5C 429.231,85.3516 426.897,79.3516 424.5,73.5C 425.268,72.7375 425.768,71.7375 426,70.5C 426.414,70.9574 426.914,71.2907 427.5,71.5C 431.481,70.4943 431.481,69.4943 427.5,68.5C 431.576,65.5193 431.243,64.1859 426.5,64.5C 426.261,62.5328 426.594,60.6995 427.5,59C 429.5,59.3333 431.5,59.6667 433.5,60C 434.158,58.0955 435.325,56.5955 437,55.5C 438.498,57.9842 439.998,60.4842 441.5,63C 439.305,67.7232 440.805,70.2232 446,70.5C 446.617,71.4491 446.451,72.2825 445.5,73C 447.886,73.2835 448.552,74.2835 447.5,76C 448.667,76.5 449.5,77.3333 450,78.5C 450.333,78.1667 450.667,77.8333 451,77.5C 450.948,79.9471 451.782,82.2804 453.5,84.5 Z"/></g>
<g><path style="opacity:1" fill="#0c7913" d="M 424.5,73.5 C 426.897,79.3516 429.231,85.3516 431.5,91.5C 431.291,92.086 430.957,92.586 430.5,93C 432.434,94.7287 432.434,96.7287 430.5,99C 430.432,110.342 430.766,121.675 431.5,133C 430.833,142 430.167,151 429.5,160C 429.355,223.065 429.521,286.232 430,349.5C 430.247,355.863 430.747,362.196 431.5,368.5C 430.546,370.811 430.212,372.978 430.5,375C 433.679,377.889 434.346,381.389 432.5,385.5C 432.919,386.672 433.585,387.672 434.5,388.5C 433.975,389.192 433.308,389.692 432.5,390C 433.059,390.725 433.392,391.558 433.5,392.5C 432.6,394.239 431.933,396.072 431.5,398C 431.833,398.833 432.167,399.667 432.5,400.5C 434.017,399.089 435.351,399.256 436.5,401C 435.941,403.36 434.608,405.693 432.5,408C 435.943,408.221 436.276,409.221 433.5,411C 435.303,411.637 436.636,412.803 437.5,414.5C 439.272,414.026 440.939,412.86 442.5,411C 441.833,410.333 441.167,409.667 440.5,409C 443.024,407.31 445.024,405.143 446.5,402.5C 446.833,402.833 447.167,403.167 447.5,403.5C 444.905,406.94 443.905,410.607 444.5,414.5C 445.552,414.351 446.552,414.517 447.5,415C 445.579,415.36 443.912,416.194 442.5,417.5C 443.953,417.06 445.119,417.726 446,419.5C 449.167,417.667 451.667,415.167 453.5,412C 452.833,411.667 452.167,411.333 451.5,411C 453.099,409.934 454.099,408.434 454.5,406.5C 453.168,402.983 453.835,399.817 456.5,397C 455.544,394.123 454.211,391.456 452.5,389C 454.099,387.214 454.933,385.047 455,382.5C 455.333,382.833 455.667,383.167 456,383.5C 456.355,376.655 456.855,369.822 457.5,363C 457.259,359.217 456.592,355.55 455.5,352C 455.381,344.686 455.714,337.353 456.5,330C 455.751,328.266 455.251,326.433 455,324.5C 454.52,254.472 454.687,184.805 455.5,115.5C 454.633,112.053 453.966,108.886 453.5,106C 456.167,105.333 456.167,104.667 453.5,104C 453.629,97.3783 453.629,90.8783 453.5,84.5C 455.464,86.9857 456.798,89.819 457.5,93C 457.167,93.3333 456.833,93.6667 456.5,94C 457.004,99.67 458.338,105.17 460.5,110.5C 459.73,159.603 459.064,208.769 458.5,258C 459.167,261 459.833,264 460.5,267C 459.696,296.612 459.363,326.112 459.5,355.5C 460.05,357.657 460.717,359.657 461.5,361.5C 461.667,376.504 461.5,391.504 461,406.5C 460.667,406.167 460.333,405.833 460,405.5C 457.612,412.527 454.612,419.193 451,425.5C 450.667,425.167 450.333,424.833 450,424.5C 448.887,426.592 448.721,428.925 449.5,431.5C 443.768,438.373 436.434,442.706 427.5,444.5C 423.064,444.21 418.73,444.71 414.5,446C 403.5,446.667 392.5,446.667 381.5,446C 379.68,445.021 378.513,443.521 378,441.5C 377.126,431.182 376.626,420.849 376.5,410.5C 389.677,410.829 402.677,410.495 415.5,409.5C 421.077,408.22 424.744,404.887 426.5,399.5C 427.222,399.082 427.722,398.416 428,397.5C 428.667,295.167 428.667,192.833 428,90.5C 427.814,87.9644 427.314,85.631 426.5,83.5C 424.885,80.5505 422.885,77.8838 420.5,75.5C 420.167,74.8333 419.833,74.1667 419.5,73.5C 421.234,72.438 422.901,72.438 424.5,73.5 Z"/></g>
<g><path style="opacity:1" fill="#08121a" d="M 266.5,96.5 C 266.833,96.5 267.167,96.5 267.5,96.5C 267.5,102.5 267.5,108.5 267.5,114.5C 254.5,114.5 241.5,114.5 228.5,114.5C 228.5,108.833 228.5,103.167 228.5,97.5C 241.344,97.8287 254.011,97.4954 266.5,96.5 Z"/></g>
<g><path style="opacity:0.386" fill="#5f6461" d="M 268.5,91.5 C 268.5,99.5 268.5,107.5 268.5,115.5C 254.833,115.5 241.167,115.5 227.5,115.5C 227.5,109.5 227.5,103.5 227.5,97.5C 227.833,97.5 228.167,97.5 228.5,97.5C 228.5,103.167 228.5,108.833 228.5,114.5C 241.5,114.5 254.5,114.5 267.5,114.5C 267.5,108.5 267.5,102.5 267.5,96.5C 267.216,94.5853 267.549,92.9187 268.5,91.5 Z"/></g>
<g><path style="opacity:1" fill="#13193f" d="M 265.5,112.5 C 265.797,108.233 265.464,104.066 264.5,100C 254.167,99.3333 243.833,99.3333 233.5,100C 230.931,104.433 230.931,108.933 233.5,113.5C 232.504,113.586 231.671,113.252 231,112.5C 230.501,107.845 230.334,103.179 230.5,98.5C 242.5,98.5 254.5,98.5 266.5,98.5C 266.819,103.363 266.486,108.03 265.5,112.5 Z"/></g>
<g><path style="opacity:1" fill="#19195d" d="M 265.5,112.5 C 255.013,113.494 244.346,113.828 233.5,113.5C 230.931,108.933 230.931,104.433 233.5,100C 243.833,99.3333 254.167,99.3333 264.5,100C 265.464,104.066 265.797,108.233 265.5,112.5 Z"/></g>
<g><path style="opacity:1" fill="#1e1673" d="M 235.5,101.5 C 245.167,101.5 254.833,101.5 264.5,101.5C 264.5,104.833 264.5,108.167 264.5,111.5C 255.48,112.929 246.48,112.762 237.5,111C 233.008,108.682 232.341,105.516 235.5,101.5 Z"/></g>
<g><path style="opacity:1" fill="#176915" d="M 487.5,55.5 C 490.879,62.001 492.879,69.001 493.5,76.5C 493.5,185.5 493.5,294.5 493.5,403.5C 493.167,403.5 492.833,403.5 492.5,403.5C 491.222,409.097 489.722,414.764 488,420.5C 483.485,425.189 480.985,430.856 480.5,437.5C 478.761,438.434 477.095,438.434 475.5,437.5C 480.835,425.645 485.168,413.478 488.5,401C 487.676,293.177 487.176,185.343 487,77.5C 484.52,69.8961 482.353,62.2295 480.5,54.5C 482.234,56.0904 483.4,58.0904 484,60.5C 484.687,58.4325 484.52,56.4325 483.5,54.5C 483.833,54.1667 484.167,53.8333 484.5,53.5C 485.265,54.6119 486.265,55.2786 487.5,55.5 Z"/></g>
<g><path style="opacity:1" fill="#6ba685" d="M 368.5,112.5 C 368.062,112.435 367.728,112.601 367.5,113C 377.439,125.235 378.939,138.401 372,152.5C 363.745,164.037 352.579,168.203 338.5,165C 325.216,159.282 318.882,149.115 319.5,134.5C 318.868,125.592 322.201,118.425 329.5,113C 332.328,110.752 335.328,108.752 338.5,107C 337.906,106.536 337.239,106.369 336.5,106.5C 338.291,105.609 340.124,104.609 342,103.5C 342.333,103.833 342.667,104.167 343,104.5C 344.667,103.833 346.333,103.167 348,102.5C 352.928,103.608 357.761,105.108 362.5,107C 364.996,108.331 366.996,110.164 368.5,112.5 Z"/></g>
<g><path style="opacity:1" fill="#003c04" d="M 461.5,66.5 C 463.472,69.0836 464.472,72.0836 464.5,75.5C 464.5,185.5 464.5,295.5 464.5,405.5C 464.672,406.492 464.338,407.158 463.5,407.5C 463.833,296.332 463.499,185.332 462.5,74.5C 462.167,71.8333 461.833,69.1667 461.5,66.5 Z"/></g>
<g><path style="opacity:1" fill="#669275" d="M 336.5,106.5 C 337.239,106.369 337.906,106.536 338.5,107C 335.328,108.752 332.328,110.752 329.5,113C 322.201,118.425 318.868,125.592 319.5,134.5C 318.882,149.115 325.216,159.282 338.5,165C 352.579,168.203 363.745,164.037 372,152.5C 378.939,138.401 377.439,125.235 367.5,113C 367.728,112.601 368.062,112.435 368.5,112.5C 377.6,121.648 380.767,132.648 378,145.5C 366.938,167.41 350.438,172.91 328.5,162C 313.804,148.602 311.637,133.436 322,116.5C 325.981,111.773 330.815,108.439 336.5,106.5 Z"/></g>
<g><path style="opacity:0.711" fill="#506950" d="M 464.5,75.5 C 465.38,85.496 466.047,95.6627 466.5,106C 466.671,205.993 466.338,305.827 465.5,405.5C 465.167,405.5 464.833,405.5 464.5,405.5C 464.5,295.5 464.5,185.5 464.5,75.5 Z"/></g>
<g><path style="opacity:1" fill="#677fc3" d="M 311.5,178.5 C 311.244,176.208 311.577,174.041 312.5,172C 311.207,171.51 309.873,171.343 308.5,171.5C 310.608,169.941 312.941,168.608 315.5,167.5C 315.651,171.564 314.318,175.231 311.5,178.5 Z"/></g>
<g><path style="opacity:0.911" fill="#295024" d="M 420.5,75.5 C 422.885,77.8838 424.885,80.5505 426.5,83.5C 426.5,188.833 426.5,294.167 426.5,399.5C 424.744,404.887 421.077,408.22 415.5,409.5C 402.167,409.5 388.833,409.5 375.5,409.5C 375.5,413.167 375.5,416.833 375.5,420.5C 375.167,420.5 374.833,420.5 374.5,420.5C 374.5,416.5 374.5,412.5 374.5,408.5C 388.344,408.829 402.01,408.496 415.5,407.5C 418.171,406.276 420.504,404.609 422.5,402.5C 423.117,402.389 423.617,402.056 424,401.5C 424.497,399.19 424.663,396.857 424.5,394.5C 425.666,291.334 425.833,188.001 425,84.5C 424.722,83.5842 424.222,82.9175 423.5,82.5C 421.664,79.8324 419.331,77.6657 416.5,76C 411.491,75.5901 406.491,75.0901 401.5,74.5C 360.135,75.4563 318.802,75.7896 277.5,75.5C 277.918,74.7784 278.584,74.2784 279.5,74C 325.167,73.3333 370.833,73.3333 416.5,74C 417.745,74.7914 419.078,75.2914 420.5,75.5 Z"/></g>
<g><path style="opacity:1" fill="#4077e3" d="M 181.5,340.5 C 183.026,337.495 182.193,336.828 179,338.5C 177.108,338.223 175.775,337.223 175,335.5C 173.584,339.135 171.584,339.468 169,336.5C 168.667,337.167 168.333,337.833 168,338.5C 165.52,336.834 162.687,336.001 159.5,336C 156.321,334.076 155.987,331.91 158.5,329.5C 157.289,328.28 157.289,327.113 158.5,326C 156.622,325.748 154.622,325.081 152.5,324C 150.376,322.137 148.376,320.137 146.5,318C 146.833,317.667 147.167,317.333 147.5,317C 145.101,316.269 142.935,315.102 141,313.5C 139.101,310.437 137.934,307.437 137.5,304.5C 138.634,302.462 138.634,300.462 137.5,298.5C 138.128,296.742 139.128,295.242 140.5,294C 139.285,291.904 138.451,292.071 138,294.5C 137.727,291.306 139.06,290.306 142,291.5C 142.684,290.216 142.517,289.049 141.5,288C 142.328,287.085 143.328,286.419 144.5,286C 144.043,285.586 143.709,285.086 143.5,284.5C 144.912,282.421 146.412,280.421 148,278.5C 148.483,277.552 148.649,276.552 148.5,275.5C 150.855,273.077 151.855,270.077 151.5,266.5C 151.369,265.761 151.536,265.094 152,264.5C 177.092,241.523 204.925,222.356 235.5,207C 236.5,206 237.5,205 238.5,204C 246.893,201.301 254.893,197.801 262.5,193.5C 268.222,192.477 273.889,191.144 279.5,189.5C 279.338,191.527 279.505,193.527 280,195.5C 280.751,192.951 282.418,191.284 285,190.5C 285.388,191.428 286.055,192.095 287,192.5C 288.449,190.517 290.783,188.85 294,187.5C 294.333,187.833 294.667,188.167 295,188.5C 295.333,187.167 295.667,185.833 296,184.5C 296.317,186.301 296.984,186.634 298,185.5C 299.128,187.345 299.628,189.345 299.5,191.5C 298.5,191.5 297.5,191.5 296.5,191.5C 296.586,193.677 297.253,195.677 298.5,197.5C 296.741,198.754 295.241,198.421 294,196.5C 292.409,199.767 290.909,203.1 289.5,206.5C 288.808,205.975 288.308,205.308 288,204.5C 285.419,206.46 284.252,208.794 284.5,211.5C 282.363,213.236 281.696,215.236 282.5,217.5C 281.811,219.444 281.311,221.444 281,223.5C 280.209,225.604 278.709,226.937 276.5,227.5C 277.5,228.167 278.5,228.833 279.5,229.5C 278.726,230.711 277.893,230.711 277,229.5C 274.878,230.22 274.378,231.387 275.5,233C 273.616,233.216 271.949,233.883 270.5,235C 272.146,236.555 272.479,238.221 271.5,240C 267.7,242.989 263.367,244.489 258.5,244.5C 257.637,247.903 256.47,251.236 255,254.5C 253.758,256.541 251.925,257.707 249.5,258C 249.761,259.927 249.761,261.927 249.5,264C 247.456,268.044 244.456,271.044 240.5,273C 240.833,274 241.167,275 241.5,276C 238.53,276.763 236.03,278.263 234,280.5C 233.667,280.167 233.333,279.833 233,279.5C 230.904,283.225 228.738,286.892 226.5,290.5C 225.289,289.726 225.289,288.893 226.5,288C 225.552,287.517 224.552,287.351 223.5,287.5C 224.833,290.167 224.833,292.833 223.5,295.5C 222.5,295.5 221.5,295.5 220.5,295.5C 220.67,296.822 220.337,297.989 219.5,299C 216.153,300.691 212.819,302.358 209.5,304C 209.833,304.333 210.167,304.667 210.5,305C 207.881,305.151 205.547,305.985 203.5,307.5C 204.309,309.792 204.643,311.959 204.5,314C 202.32,315.878 200.487,318.044 199,320.5C 198.692,319.692 198.192,319.025 197.5,318.5C 194.639,323.397 190.973,327.563 186.5,331C 188.542,333.58 191.209,335.247 194.5,336C 192.22,336.233 190.22,337.066 188.5,338.5C 187.914,338.291 187.414,337.957 187,337.5C 185.134,338.527 183.3,339.527 181.5,340.5 Z"/></g>
<g><path style="opacity:1" fill="#4671bf" d="M 311.5,178.5 C 309.147,183.205 306.814,187.872 304.5,192.5C 298.659,204.188 292.326,215.522 285.5,226.5C 289.414,217.338 293.914,208.338 299,199.5C 299.674,196.74 300.507,194.073 301.5,191.5C 302.5,191.5 303.5,191.5 304.5,191.5C 305.217,187.078 306.217,182.744 307.5,178.5C 308.833,178.5 310.167,178.5 311.5,178.5 Z"/></g>
<g><path style="opacity:0.17" fill="#99b49d" d="M 72.5,83.5 C 72.7197,188.973 72.7197,294.306 72.5,399.5C 71.1667,294.167 71.1667,188.833 72.5,83.5 Z"/></g>
<g><path style="opacity:1" fill="#4298c7" d="M 299.5,175.5 C 288.244,181.118 276.578,186.284 264.5,191C 263.619,191.708 262.953,192.542 262.5,193.5C 254.893,197.801 246.893,201.301 238.5,204C 237.5,205 236.5,206 235.5,207C 204.925,222.356 177.092,241.523 152,264.5C 151.536,265.094 151.369,265.761 151.5,266.5C 150.5,267.167 149.5,267.833 148.5,268.5C 148.167,269.5 147.5,270.167 146.5,270.5C 146.167,271.5 145.5,272.167 144.5,272.5C 143.167,272.833 143.167,273.167 144.5,273.5C 143.833,274.833 142.833,275.833 141.5,276.5C 140.356,275.817 140.356,276.151 141.5,277.5C 140.199,278.882 139.366,280.548 139,282.5C 137.989,283.337 136.822,283.67 135.5,283.5C 136.092,286.631 135.092,288.964 132.5,290.5C 131.178,290.67 130.011,290.337 129,289.5C 127.06,283.322 124.56,277.488 121.5,272C 123.227,263.177 126.061,254.677 130,246.5C 134.79,240.041 139.957,233.874 145.5,228C 186.801,201.364 231.468,181.697 279.5,169C 281.405,168.174 281.739,167.007 280.5,165.5C 277.979,166.785 275.313,167.452 272.5,167.5C 284.222,163.231 296.222,159.565 308.5,156.5C 306.943,162.937 303.776,168.604 299,173.5C 298.308,174.437 298.475,175.103 299.5,175.5 Z M 137.5,279.5 C 138.713,280.497 138.546,281.497 137,282.5C 136.53,281.423 136.697,280.423 137.5,279.5 Z"/></g>
<g><path style="opacity:1" fill="#044005" d="M 12.5,87.5 C 12.8328,189.335 12.4994,291.001 11.5,392.5C 11.5,391.833 11.5,391.167 11.5,390.5C 10.3594,292.842 10.1927,195.175 11,97.5C 11.1787,93.9748 11.6787,90.6414 12.5,87.5 Z"/></g>
<g><path style="opacity:1" fill="#3d72db" d="M 308.5,171.5 C 309.873,171.343 311.207,171.51 312.5,172C 311.577,174.041 311.244,176.208 311.5,178.5C 310.167,178.5 308.833,178.5 307.5,178.5C 306.217,182.744 305.217,187.078 304.5,191.5C 303.5,191.5 302.5,191.5 301.5,191.5C 300.507,194.073 299.674,196.74 299,199.5C 293.914,208.338 289.414,217.338 285.5,226.5C 283.405,231.027 281.072,235.361 278.5,239.5C 274.039,241.735 271.539,245.402 271,250.5C 270.667,250.167 270.333,249.833 270,249.5C 268.208,252.747 266.708,256.081 265.5,259.5C 261.363,259.779 259.863,261.779 261,265.5C 259.951,264.483 258.784,264.316 257.5,265C 257.833,265.333 258.167,265.667 258.5,266C 256.751,270.63 254.751,275.13 252.5,279.5C 250.328,280.801 247.995,281.801 245.5,282.5C 245.617,284.484 244.95,286.15 243.5,287.5C 238.198,293.971 232.698,300.305 227,306.5C 225.558,309.05 224.392,311.716 223.5,314.5C 222.271,315.281 220.938,315.781 219.5,316C 220.337,317.011 220.67,318.178 220.5,319.5C 219.5,319.5 218.5,319.5 217.5,319.5C 213.759,328.405 207.259,334.405 198,337.5C 197.51,338.793 197.343,340.127 197.5,341.5C 192.637,342.717 187.97,344.383 183.5,346.5C 180.813,346.664 178.146,346.497 175.5,346C 179.19,345.576 179.357,344.742 176,343.5C 175.732,341.41 176.732,340.076 179,339.5C 179.782,342.188 181.282,343.188 183.5,342.5C 182.757,341.818 182.091,341.151 181.5,340.5C 183.3,339.527 185.134,338.527 187,337.5C 187.414,337.957 187.914,338.291 188.5,338.5C 190.22,337.066 192.22,336.233 194.5,336C 191.209,335.247 188.542,333.58 186.5,331C 190.973,327.563 194.639,323.397 197.5,318.5C 198.192,319.025 198.692,319.692 199,320.5C 200.487,318.044 202.32,315.878 204.5,314C 204.643,311.959 204.309,309.792 203.5,307.5C 205.547,305.985 207.881,305.151 210.5,305C 210.167,304.667 209.833,304.333 209.5,304C 212.819,302.358 216.153,300.691 219.5,299C 220.337,297.989 220.67,296.822 220.5,295.5C 221.5,295.5 222.5,295.5 223.5,295.5C 224.833,292.833 224.833,290.167 223.5,287.5C 224.552,287.351 225.552,287.517 226.5,288C 225.289,288.893 225.289,289.726 226.5,290.5C 228.738,286.892 230.904,283.225 233,279.5C 233.333,279.833 233.667,280.167 234,280.5C 236.03,278.263 238.53,276.763 241.5,276C 241.167,275 240.833,274 240.5,273C 244.456,271.044 247.456,268.044 249.5,264C 249.761,261.927 249.761,259.927 249.5,258C 251.925,257.707 253.758,256.541 255,254.5C 256.47,251.236 257.637,247.903 258.5,244.5C 263.367,244.489 267.7,242.989 271.5,240C 272.479,238.221 272.146,236.555 270.5,235C 271.949,233.883 273.616,233.216 275.5,233C 274.378,231.387 274.878,230.22 277,229.5C 277.893,230.711 278.726,230.711 279.5,229.5C 278.5,228.833 277.5,228.167 276.5,227.5C 278.709,226.937 280.209,225.604 281,223.5C 281.311,221.444 281.811,219.444 282.5,217.5C 281.696,215.236 282.363,213.236 284.5,211.5C 284.252,208.794 285.419,206.46 288,204.5C 288.308,205.308 288.808,205.975 289.5,206.5C 290.909,203.1 292.409,199.767 294,196.5C 295.241,198.421 296.741,198.754 298.5,197.5C 297.253,195.677 296.586,193.677 296.5,191.5C 297.5,191.5 298.5,191.5 299.5,191.5C 299.628,189.345 299.128,187.345 298,185.5C 296.984,186.634 296.317,186.301 296,184.5C 295.667,185.833 295.333,187.167 295,188.5C 294.667,188.167 294.333,187.833 294,187.5C 290.783,188.85 288.449,190.517 287,192.5C 286.055,192.095 285.388,191.428 285,190.5C 282.418,191.284 280.751,192.951 280,195.5C 279.505,193.527 279.338,191.527 279.5,189.5C 273.889,191.144 268.222,192.477 262.5,193.5C 262.953,192.542 263.619,191.708 264.5,191C 276.578,186.284 288.244,181.118 299.5,175.5C 302.378,173.895 305.378,172.561 308.5,171.5 Z"/></g>
<g><path style="opacity:1" fill="#457ca2" d="M 132.5,290.5 C 132.113,293.206 131.113,295.539 129.5,297.5C 126.058,291.521 123.225,285.187 121,278.5C 118.591,266.215 120.924,254.881 128,244.5C 133.134,238.365 138.634,232.531 144.5,227C 173.104,206.665 204.104,190.665 237.5,179C 249.018,174.66 260.685,170.827 272.5,167.5C 275.313,167.452 277.979,166.785 280.5,165.5C 281.739,167.007 281.405,168.174 279.5,169C 231.468,181.697 186.801,201.364 145.5,228C 139.957,233.874 134.79,240.041 130,246.5C 126.061,254.677 123.227,263.177 121.5,272C 124.56,277.488 127.06,283.322 129,289.5C 130.011,290.337 131.178,290.67 132.5,290.5 Z"/></g>
<g><path style="opacity:1" fill="#a9def2" d="M 304.5,192.5 C 304.328,193.492 304.662,194.158 305.5,194.5C 300.075,207.606 293.241,219.939 285,231.5C 281.361,240.112 277.194,248.446 272.5,256.5C 271.675,257.386 270.675,257.719 269.5,257.5C 268.978,260.568 268.145,263.568 267,266.5C 255.064,284.036 242.397,301.036 229,317.5C 219.066,329.029 207.566,338.529 194.5,346C 191.883,346.822 189.216,347.322 186.5,347.5C 190.295,345.769 193.962,343.769 197.5,341.5C 210.719,332.119 222.553,321.119 233,308.5C 250.175,286.814 265.342,263.814 278.5,239.5C 281.072,235.361 283.405,231.027 285.5,226.5C 292.326,215.522 298.659,204.188 304.5,192.5 Z"/></g>
<g><path style="opacity:1" fill="#085b06" d="M 426.5,83.5 C 427.314,85.631 427.814,87.9644 428,90.5C 428.667,192.833 428.667,295.167 428,397.5C 427.722,398.416 427.222,399.082 426.5,399.5C 426.5,294.167 426.5,188.833 426.5,83.5 Z"/></g>
<g><path style="opacity:1" fill="#084704" d="M 8.5,70.5 C 9.73102,175.506 9.73102,280.506 8.5,385.5C 8.5,392.833 8.5,400.167 8.5,407.5C 9.15872,410.455 9.49205,413.455 9.5,416.5C 7.30823,412.902 6.30823,408.902 6.5,404.5C 6.33333,295.499 6.5,186.499 7,77.5C 7.18618,74.9644 7.68618,72.631 8.5,70.5 Z"/></g>
<g><path style="opacity:1" fill="#097219" d="M 157.5,35.5 C 159.308,36.3246 161.141,37.3246 163,38.5C 185.81,37.1823 208.643,37.1823 231.5,38.5C 238.451,44.6874 246.118,46.354 254.5,43.5C 258.461,41.9949 262.128,39.8282 265.5,37C 267.5,36.6667 269.5,36.3333 271.5,36C 291.497,35.5 311.497,35.3334 331.5,35.5C 363.875,35.0366 396.208,35.5366 428.5,37C 434.589,40.2159 440.589,43.7159 446.5,47.5C 452.316,53.3018 457.316,59.6351 461.5,66.5C 461.833,69.1667 462.167,71.8333 462.5,74.5C 462.667,185.834 462.5,297.167 462,408.5C 460.681,410.25 460.181,412.25 460.5,414.5C 460.108,416.179 459.608,417.846 459,419.5C 456.055,423.751 452.888,427.751 449.5,431.5C 448.721,428.925 448.887,426.592 450,424.5C 450.333,424.833 450.667,425.167 451,425.5C 454.612,419.193 457.612,412.527 460,405.5C 460.333,405.833 460.667,406.167 461,406.5C 461.5,391.504 461.667,376.504 461.5,361.5C 461.667,267.833 461.5,174.166 461,80.5C 460.333,76.5 459.667,72.5 459,68.5C 456.422,61.5406 451.589,57.0406 444.5,55C 443.394,52.2265 441.561,50.0599 439,48.5C 437.27,47.3507 435.604,47.3507 434,48.5C 433.275,46.842 432.108,46.342 430.5,47C 431.451,47.7175 431.617,48.5509 431,49.5C 430.15,48.5761 429.15,48.5761 428,49.5C 427.5,49.3333 427,49.1667 426.5,49C 427.731,47.8173 427.731,46.6507 426.5,45.5C 424.028,46.4201 422.362,45.4201 421.5,42.5C 420.833,42.8333 420.167,43.1667 419.5,43.5C 418.304,43.1543 418.304,42.6543 419.5,42C 413.663,40.0676 407.663,38.901 401.5,38.5C 356.833,38.9001 312.999,38.9001 270,38.5C 268.833,38.8333 267.667,39.1667 266.5,39.5C 266.833,40.1667 267.167,40.8333 267.5,41.5C 262.612,43.193 258.112,45.5264 254,48.5C 250.149,48.8518 246.316,48.1851 242.5,46.5C 241.252,47.0402 240.085,47.7069 239,48.5C 237.383,47.4642 237.216,46.2975 238.5,45C 235.512,42.8738 232.179,41.3738 228.5,40.5C 206.543,39.7378 184.377,39.7378 162,40.5C 161.333,39.8333 160.667,39.1667 160,38.5C 157.607,40.994 156.44,40.3273 156.5,36.5C 132.826,36.6128 109.16,37.1128 85.5,38C 80.8694,38.7824 76.3694,39.949 72,41.5C 71.586,41.0426 71.086,40.7093 70.5,40.5C 66.5879,42.3725 62.7546,44.3725 59,46.5C 57.6124,45.4464 56.1124,45.2797 54.5,46C 53.2107,47.8022 51.5441,48.9688 49.5,49.5C 52.2724,45.6129 55.9391,42.9462 60.5,41.5C 65.2573,39.9569 69.9239,38.1235 74.5,36C 102.165,35.5 129.831,35.3334 157.5,35.5 Z"/></g>
<g><path style="opacity:0.685" fill="#4f7a4f" d="M 493.5,76.5 C 494.209,90.1818 494.876,104.015 495.5,118C 495.819,213.277 495.486,308.444 494.5,403.5C 494.167,403.5 493.833,403.5 493.5,403.5C 493.5,294.5 493.5,185.5 493.5,76.5 Z"/></g>
<g><path style="opacity:0.143" fill="#9eb39c" d="M 423.5,82.5 C 424.222,82.9175 424.722,83.5842 425,84.5C 425.833,188.001 425.666,291.334 424.5,394.5C 424.827,290.472 424.493,186.472 423.5,82.5 Z"/></g>
<g><path style="opacity:1" fill="#126210" d="M 47.5,51.5 C 46.1532,56.2234 43.6532,60.2234 40,63.5C 37.8134,68.3865 35.8134,73.3865 34,78.5C 33.5012,82.4862 33.3345,86.4862 33.5,90.5C 33.1667,197.502 33.5,304.502 34.5,411.5C 36.0993,416.027 38.766,419.694 42.5,422.5C 43.3482,424.409 43.6816,426.409 43.5,428.5C 42.0652,427.21 41.0652,425.544 40.5,423.5C 39.5832,422.873 38.5832,422.539 37.5,422.5C 34.3639,418.789 32.3639,414.455 31.5,409.5C 32.3331,297.334 32.8331,185.001 33,72.5C 34.9103,68.345 37.077,64.345 39.5,60.5C 41.4528,56.8797 44.1195,53.8797 47.5,51.5 Z"/></g>
<g><path style="opacity:1" fill="#4266bf" d="M 151.5,266.5 C 151.855,270.077 150.855,273.077 148.5,275.5C 144.343,277.158 141.343,279.992 139.5,284C 138.552,284.483 137.552,284.649 136.5,284.5C 136.97,287.346 136.137,289.679 134,291.5C 131.799,300.39 131.132,309.39 132,318.5C 133.559,320.217 134.392,322.217 134.5,324.5C 132.214,321.567 130.214,318.567 128.5,315.5C 127.161,309.527 127.494,303.527 129.5,297.5C 131.113,295.539 132.113,293.206 132.5,290.5C 135.092,288.964 136.092,286.631 135.5,283.5C 136.822,283.67 137.989,283.337 139,282.5C 139.366,280.548 140.199,278.882 141.5,277.5C 141.5,277.167 141.5,276.833 141.5,276.5C 142.833,275.833 143.833,274.833 144.5,273.5C 144.5,273.167 144.5,272.833 144.5,272.5C 145.5,272.167 146.167,271.5 146.5,270.5C 147.5,270.167 148.167,269.5 148.5,268.5C 149.5,267.833 150.5,267.167 151.5,266.5 Z"/></g>
<g><path style="opacity:1" fill="#73cce8" d="M 253.5,335.5 C 253.631,334.761 253.464,334.094 253,333.5C 241.95,347.541 227.617,356.207 210,359.5C 205.131,359.026 200.298,358.359 195.5,357.5C 191.104,355.553 186.938,353.219 183,350.5C 181.467,350.773 179.967,351.106 178.5,351.5C 180.531,349.245 183.198,347.912 186.5,347.5C 189.216,347.322 191.883,346.822 194.5,346C 207.566,338.529 219.066,329.029 229,317.5C 242.397,301.036 255.064,284.036 267,266.5C 268.145,263.568 268.978,260.568 269.5,257.5C 270.675,257.719 271.675,257.386 272.5,256.5C 277.194,248.446 281.361,240.112 285,231.5C 293.241,219.939 300.075,207.606 305.5,194.5C 310.044,184.373 317.711,177.706 328.5,174.5C 328.804,180.982 327.637,187.315 325,193.5C 313.812,226.063 300.479,257.729 285,288.5C 275.964,305.266 265.464,320.933 253.5,335.5 Z"/></g>
<g><path style="opacity:1" fill="#3768c2" d="M 278.5,239.5 C 265.342,263.814 250.175,286.814 233,308.5C 222.553,321.119 210.719,332.119 197.5,341.5C 197.343,340.127 197.51,338.793 198,337.5C 207.259,334.405 213.759,328.405 217.5,319.5C 218.5,319.5 219.5,319.5 220.5,319.5C 220.67,318.178 220.337,317.011 219.5,316C 220.938,315.781 222.271,315.281 223.5,314.5C 224.392,311.716 225.558,309.05 227,306.5C 232.698,300.305 238.198,293.971 243.5,287.5C 244.95,286.15 245.617,284.484 245.5,282.5C 247.995,281.801 250.328,280.801 252.5,279.5C 254.751,275.13 256.751,270.63 258.5,266C 258.167,265.667 257.833,265.333 257.5,265C 258.784,264.316 259.951,264.483 261,265.5C 259.863,261.779 261.363,259.779 265.5,259.5C 266.708,256.081 268.208,252.747 270,249.5C 270.333,249.833 270.667,250.167 271,250.5C 271.539,245.402 274.039,241.735 278.5,239.5 Z"/></g>
<g><path style="opacity:0.906" fill="#415c3a" d="M 31.5,73.5 C 31.5,185.167 31.5,296.833 31.5,408.5C 30.6909,406.708 30.1909,404.708 30,402.5C 29.3333,295.167 29.3333,187.833 30,80.5C 30.1862,77.9644 30.6862,75.631 31.5,73.5 Z"/></g>
<g><path style="opacity:1" fill="#003901" d="M 37.5,60.5 C 38.1667,60.5 38.8333,60.5 39.5,60.5C 37.077,64.345 34.9103,68.345 33,72.5C 32.8331,185.001 32.3331,297.334 31.5,409.5C 31.5,409.167 31.5,408.833 31.5,408.5C 31.5,296.833 31.5,185.167 31.5,73.5C 32.3612,68.5572 34.3612,64.2238 37.5,60.5 Z"/></g>
<g><path style="opacity:0.972" fill="#0f4b12" d="M 80.5,74.5 C 80.5,74.8333 80.5,75.1667 80.5,75.5C 76.8866,77.1132 74.22,79.7798 72.5,83.5C 71.1667,188.833 71.1667,294.167 72.5,399.5C 73.5348,402.767 75.5348,405.267 78.5,407C 82.3563,407.177 86.023,407.677 89.5,408.5C 127.485,409.504 170.151,409.837 217.5,409.5C 172.335,410.665 127.002,410.831 81.5,410C 77.76,408.71 74.5933,406.543 72,403.5C 70.3398,295.889 70.0064,188.223 71,80.5C 73.0973,76.7679 76.264,74.7679 80.5,74.5 Z"/></g>
<g><path style="opacity:1" fill="#066414" d="M 462.5,74.5 C 463.499,185.332 463.833,296.332 463.5,407.5C 462.344,409.824 461.344,412.157 460.5,414.5C 460.181,412.25 460.681,410.25 462,408.5C 462.5,297.167 462.667,185.834 462.5,74.5 Z"/></g>
<g><path style="opacity:0.02" fill="#cbffcb" d="M 76.5,317.5 C 77.8333,318.167 77.8333,318.167 76.5,317.5 Z"/></g>
<g><path style="opacity:1" fill="#3e6cda" d="M 148.5,275.5 C 148.649,276.552 148.483,277.552 148,278.5C 146.412,280.421 144.912,282.421 143.5,284.5C 143.709,285.086 144.043,285.586 144.5,286C 143.328,286.419 142.328,287.085 141.5,288C 142.517,289.049 142.684,290.216 142,291.5C 139.06,290.306 137.727,291.306 138,294.5C 138.451,292.071 139.285,291.904 140.5,294C 139.128,295.242 138.128,296.742 137.5,298.5C 138.634,300.462 138.634,302.462 137.5,304.5C 137.934,307.437 139.101,310.437 141,313.5C 142.935,315.102 145.101,316.269 147.5,317C 147.167,317.333 146.833,317.667 146.5,318C 148.376,320.137 150.376,322.137 152.5,324C 154.622,325.081 156.622,325.748 158.5,326C 157.289,327.113 157.289,328.28 158.5,329.5C 155.987,331.91 156.321,334.076 159.5,336C 162.687,336.001 165.52,336.834 168,338.5C 168.333,337.833 168.667,337.167 169,336.5C 171.584,339.468 173.584,339.135 175,335.5C 175.775,337.223 177.108,338.223 179,338.5C 182.193,336.828 183.026,337.495 181.5,340.5C 182.091,341.151 182.757,341.818 183.5,342.5C 181.282,343.188 179.782,342.188 179,339.5C 176.732,340.076 175.732,341.41 176,343.5C 179.357,344.742 179.19,345.576 175.5,346C 178.146,346.497 180.813,346.664 183.5,346.5C 179.44,348.017 175.107,348.684 170.5,348.5C 163.644,348.527 156.977,347.527 150.5,345.5C 147.836,341.931 144.502,338.931 140.5,336.5C 137.916,332.72 135.916,328.72 134.5,324.5C 134.392,322.217 133.559,320.217 132,318.5C 131.132,309.39 131.799,300.39 134,291.5C 136.137,289.679 136.97,287.346 136.5,284.5C 137.552,284.649 138.552,284.483 139.5,284C 141.343,279.992 144.343,277.158 148.5,275.5 Z"/></g>
<g><path style="opacity:0.059" fill="#edffed" d="M 75.5,319.5 C 76.8333,320.167 76.8333,320.167 75.5,319.5 Z"/></g>
<g><path style="opacity:1" fill="#414f8a" d="M 128.5,315.5 C 130.214,318.567 132.214,321.567 134.5,324.5C 135.916,328.72 137.916,332.72 140.5,336.5C 144.502,338.931 147.836,341.931 150.5,345.5C 141.12,341.283 134.62,334.283 131,324.5C 129.57,321.647 128.737,318.647 128.5,315.5 Z"/></g>
<g><path style="opacity:1" fill="#394e90" d="M 197.5,341.5 C 193.962,343.769 190.295,345.769 186.5,347.5C 183.198,347.912 180.531,349.245 178.5,351.5C 170.307,352.465 161.974,351.299 153.5,348C 152.429,347.148 151.429,346.315 150.5,345.5C 156.977,347.527 163.644,348.527 170.5,348.5C 175.107,348.684 179.44,348.017 183.5,346.5C 187.97,344.383 192.637,342.717 197.5,341.5 Z"/></g>
<g><path style="opacity:0.765" fill="#76b5be" d="M 253.5,335.5 C 243.573,347.222 231.24,355.722 216.5,361C 208.96,362.298 201.96,361.132 195.5,357.5C 200.298,358.359 205.131,359.026 210,359.5C 227.617,356.207 241.95,347.541 253,333.5C 253.464,334.094 253.631,334.761 253.5,335.5 Z"/></g>
<g><path style="opacity:0.004" fill="#feff00" d="M 74.5,373.5 C 75.8333,374.167 75.8333,374.167 74.5,373.5 Z"/></g>
<g><path style="opacity:0.047" fill="#d4ffec" d="M 76.5,377.5 C 77.6378,380.304 77.8045,383.304 77,386.5C 76.502,383.518 76.3354,380.518 76.5,377.5 Z"/></g>
<g><path style="opacity:0.051" fill="#b3cbb6" d="M 244.5,390.5 C 238.402,389.883 232.735,390.55 227.5,392.5C 227.5,394.5 227.5,396.5 227.5,398.5C 227.167,398.5 226.833,398.5 226.5,398.5C 226.5,395.5 226.5,392.5 226.5,389.5C 232.69,389.177 238.69,389.51 244.5,390.5 Z"/></g>
<g><path style="opacity:0.071" fill="#e4fff4" d="M 80.5,393.5 C 79.4265,392.749 79.2599,391.749 80,390.5C 80.4828,391.448 80.6495,392.448 80.5,393.5 Z"/></g>
<g><path style="opacity:0.008" fill="#80ff7f" d="M 80.5,393.5 C 81.8333,394.167 81.8333,394.167 80.5,393.5 Z"/></g>
<g><path style="opacity:0.098" fill="#e2eee2" d="M 421.5,392.5 C 422.773,393.077 422.773,393.743 421.5,394.5C 420.537,394.03 420.537,393.363 421.5,392.5 Z"/></g>
<g><path style="opacity:0.631" fill="#aeb7ae" d="M 424.5,394.5 C 424.663,396.857 424.497,399.19 424,401.5C 423.617,402.056 423.117,402.389 422.5,402.5C 422.963,399.67 423.629,397.003 424.5,394.5 Z"/></g>
<g><path style="opacity:0.012" fill="#a9ffa9" d="M 81.5,397.5 C 82.8333,398.167 82.8333,398.167 81.5,397.5 Z"/></g>
<g><path style="opacity:0.039" fill="#e5ffe5" d="M 81.5,398.5 C 80.8333,399.167 80.8333,399.167 81.5,398.5 Z"/></g>
<g><path style="opacity:0.22" fill="#dae9d5" d="M 485.5,379.5 C 486.008,390.36 485.342,401.027 483.5,411.5C 483.167,411.5 482.833,411.5 482.5,411.5C 483.978,400.839 484.978,390.172 485.5,379.5 Z"/></g>
<g><path style="opacity:1" fill="#0a560e" d="M 258.5,439.5 C 258.5,426.833 258.5,414.167 258.5,401.5C 258.988,398.289 258.321,395.456 256.5,393C 247.532,392.056 238.698,392.556 230,394.5C 229.654,397.576 228.988,400.576 228,403.5C 227.617,404.056 227.117,404.389 226.5,404.5C 227.15,402.565 227.483,400.565 227.5,398.5C 227.5,396.5 227.5,394.5 227.5,392.5C 238,391.178 248.5,391.178 259,392.5C 259.828,408.339 259.661,424.005 258.5,439.5 Z"/></g>
<g><path style="opacity:0.106" fill="#f5f6f5" d="M 404.5,403.5 C 405.833,404.167 405.833,404.167 404.5,403.5 Z"/></g>
<g><path style="opacity:0.024" fill="#d4d5d4" d="M 379.5,404.5 C 380.833,405.167 380.833,405.167 379.5,404.5 Z"/></g>
<g><path style="opacity:0.05" fill="#cad7cb" d="M 218.5,407.5 C 178.003,408.499 137.337,408.832 96.5,408.5C 97.3591,406.894 97.5258,405.227 97,403.5C 97.5,404 98,404.5 98.5,405C 103.815,405.813 109.148,406.479 114.5,407C 149.165,407.5 183.832,407.667 218.5,407.5 Z"/></g>
<g><path style="opacity:0.561" fill="#9abaa0" d="M 492.5,403.5 C 492.833,403.5 493.167,403.5 493.5,403.5C 493.833,403.5 494.167,403.5 494.5,403.5C 494.435,406.428 493.768,409.095 492.5,411.5C 492.5,408.833 492.5,406.167 492.5,403.5 Z"/></g>
<g><path style="opacity:1" fill="#447543" d="M 12.5,87.5 C 12.8333,87.5 13.1667,87.5 13.5,87.5C 13.3333,189.167 13.5,290.834 14,392.5C 14.5825,405.737 18.0825,418.071 24.5,429.5C 23.391,429.443 22.391,429.11 21.5,428.5C 19.9261,426.898 19.2594,424.898 19.5,422.5C 18.5,422.5 17.5,422.5 16.5,422.5C 14.7391,417.291 13.2391,411.958 12,406.5C 11.5008,401.845 11.3342,397.179 11.5,392.5C 12.4994,291.001 12.8328,189.335 12.5,87.5 Z"/></g>
<g><path style="opacity:0.899" fill="#183617" d="M 226.5,398.5 C 226.833,398.5 227.167,398.5 227.5,398.5C 227.483,400.565 227.15,402.565 226.5,404.5C 223.957,406.94 220.957,408.606 217.5,409.5C 170.151,409.837 127.485,409.504 89.5,408.5C 91.8333,408.5 94.1667,408.5 96.5,408.5C 137.337,408.832 178.003,408.499 218.5,407.5C 221.851,405.146 224.518,402.146 226.5,398.5 Z"/></g>
<g><path style="opacity:0.098" fill="#adccb1" d="M 492.5,411.5 C 492.829,414.228 492.163,416.562 490.5,418.5C 490.721,415.933 491.388,413.599 492.5,411.5 Z"/></g>
<g><path style="opacity:0.831" fill="#87a181" d="M 482.5,411.5 C 482.833,411.5 483.167,411.5 483.5,411.5C 482.917,414.947 481.584,417.947 479.5,420.5C 479.928,417.215 480.928,414.215 482.5,411.5 Z"/></g>
<g><path style="opacity:1" fill="#087811" d="M 258.5,401.5 C 258.5,414.167 258.5,426.833 258.5,439.5C 258.5,440.5 258.5,441.5 258.5,442.5C 255.671,439.108 252.005,437.441 247.5,437.5C 248.749,435.864 250.416,434.697 252.5,434C 252,433.5 251.5,433 251,432.5C 247.194,433.016 243.528,434.016 240,435.5C 239.333,434.833 238.667,434.167 238,433.5C 235.601,436.001 233.101,436.001 230.5,433.5C 229.5,433.833 228.833,434.5 228.5,435.5C 229.167,435.833 229.833,436.167 230.5,436.5C 230,436.833 229.5,437.167 229,437.5C 227.779,436.728 226.779,435.728 226,434.5C 225.383,435.449 225.549,436.282 226.5,437C 224.893,437.115 223.393,436.615 222,435.5C 221.5,435.667 221,435.833 220.5,436C 221.308,436.308 221.975,436.808 222.5,437.5C 221.609,438.59 220.609,438.59 219.5,437.5C 218.468,439.04 217.135,439.54 215.5,439C 216.956,438.577 217.456,437.744 217,436.5C 214.503,440.148 212.169,439.815 210,435.5C 209.25,436.126 208.416,436.626 207.5,437C 210.028,438.316 210.028,439.483 207.5,440.5C 175.833,439.833 144.167,439.167 112.5,438.5C 109.303,438.896 106.136,439.229 103,439.5C 102.333,438.833 101.667,438.167 101,437.5C 94.3571,438.919 87.8571,438.252 81.5,435.5C 79.8065,432.81 77.4732,430.81 74.5,429.5C 73.8076,430.025 73.3076,430.692 73,431.5C 71.2703,431.491 69.437,431.158 67.5,430.5C 64.6503,426.821 61.6503,423.321 58.5,420C 57.3058,417.937 57.3058,415.77 58.5,413.5C 60.8679,411.467 62.8679,409.133 64.5,406.5C 66.6298,408.127 68.6298,409.96 70.5,412C 69.5494,412.718 69.3828,413.551 70,414.5C 71.9207,412.623 74.254,411.623 77,411.5C 89.3961,412.084 101.729,412.751 114,413.5C 145.428,412.338 176.928,412.171 208.5,413C 210.167,413.833 211.833,414.667 213.5,415.5C 217.033,414.131 220.533,412.798 224,411.5C 225.395,412.815 226.395,412.481 227,410.5C 227.718,411.451 228.551,411.617 229.5,411C 228.483,409.951 228.316,408.784 229,407.5C 230.5,405.667 232,403.833 233.5,402C 231.099,401.195 231.266,400.362 234,399.5C 234.295,394.983 235.962,394.65 239,398.5C 239.41,395.286 240.91,394.62 243.5,396.5C 247.361,395.523 251.028,394.856 254.5,394.5C 255.478,394.977 256.311,395.643 257,396.5C 257.198,398.382 257.698,400.048 258.5,401.5 Z"/></g>
<g><path style="opacity:0.115" fill="#acc2ad" d="M 415.5,407.5 C 402.01,408.496 388.344,408.829 374.5,408.5C 374.5,412.5 374.5,416.5 374.5,420.5C 374.5,429.833 374.5,439.167 374.5,448.5C 373.339,435.006 373.173,421.34 374,407.5C 375,406.833 376,406.167 377,405.5C 389.585,407.469 402.418,408.136 415.5,407.5 Z"/></g>
<g><path style="opacity:1" fill="#31662e" d="M 492.5,403.5 C 492.5,406.167 492.5,408.833 492.5,411.5C 491.388,413.599 490.721,415.933 490.5,418.5C 488.457,425.589 485.124,431.922 480.5,437.5C 480.985,430.856 483.485,425.189 488,420.5C 489.722,414.764 491.222,409.097 492.5,403.5 Z"/></g>
<g><path style="opacity:0.984" fill="#1c481a" d="M 37.5,422.5 C 38.5832,422.539 39.5832,422.873 40.5,423.5C 41.0652,425.544 42.0652,427.21 43.5,428.5C 46.0016,430.17 48.0016,432.336 49.5,435C 51.7274,435.941 53.7274,437.108 55.5,438.5C 59.228,441.559 63.228,444.226 67.5,446.5C 55.658,443.156 46.158,436.489 39,426.5C 38.2086,425.255 37.7086,423.922 37.5,422.5 Z"/></g>
<g><path style="opacity:1" fill="#226f20" d="M 8.5,385.5 C 10.0276,386.802 11.0276,388.469 11.5,390.5C 11.5,391.167 11.5,391.833 11.5,392.5C 11.3342,397.179 11.5008,401.845 12,406.5C 13.2391,411.958 14.7391,417.291 16.5,422.5C 17.5,422.5 18.5,422.5 19.5,422.5C 19.2594,424.898 19.9261,426.898 21.5,428.5C 23.9495,433.884 27.2829,438.718 31.5,443C 32.5,443.333 33.5,443.667 34.5,444C 38.4949,448.472 43.1615,451.639 48.5,453.5C 48.4142,454.496 48.7476,455.329 49.5,456C 54.2005,457.767 58.7005,459.934 63,462.5C 64.7659,461.767 66.5992,461.433 68.5,461.5C 69.3984,462.158 70.3984,462.824 71.5,463.5C 72.0016,464.716 72.3349,465.883 72.5,467C 62.1446,467.994 52.8113,465.327 44.5,459C 42.1463,455.649 39.1463,452.982 35.5,451C 29.6245,444.793 24.1245,438.293 19,431.5C 14.9833,423.578 11.4833,415.578 8.5,407.5C 8.5,400.167 8.5,392.833 8.5,385.5 Z"/></g>
<g><path style="opacity:0.745" fill="#254925" d="M 260.5,390.5 C 260.5,407.5 260.5,424.5 260.5,441.5C 259.833,441.833 259.167,442.167 258.5,442.5C 258.5,441.5 258.5,440.5 258.5,439.5C 259.661,424.005 259.828,408.339 259,392.5C 248.5,391.178 238,391.178 227.5,392.5C 232.735,390.55 238.402,389.883 244.5,390.5C 249.985,389.364 255.319,389.364 260.5,390.5 Z"/></g>
<g><path style="opacity:1" fill="#31803c" d="M 247.5,437.5 C 252.005,437.441 255.671,439.108 258.5,442.5C 257.652,443.625 256.652,443.625 255.5,442.5C 254.653,441.034 253.32,440.2 251.5,440C 248.833,439.333 246.167,439.333 243.5,440C 240.907,442.114 238.24,443.947 235.5,445.5C 232.888,446.371 230.221,447.037 227.5,447.5C 227.5,447.167 227.5,446.833 227.5,446.5C 230.152,446.45 231.152,445.45 230.5,443.5C 233.266,441.871 236.266,441.205 239.5,441.5C 239.281,440.325 239.614,439.325 240.5,438.5C 242.793,439.027 245.127,438.694 247.5,437.5 Z"/></g>
<g><path style="opacity:1" fill="#21265d" d="M 255.5,442.5 C 255.894,444.71 257.227,446.043 259.5,446.5C 259.5,450.833 259.5,455.167 259.5,459.5C 259.167,459.5 258.833,459.5 258.5,459.5C 258.5,459.167 258.5,458.833 258.5,458.5C 258.665,455.482 258.498,452.482 258,449.5C 255.988,447.32 254.155,444.986 252.5,442.5C 251.061,441.937 249.561,441.603 248,441.5C 243.941,443.286 239.774,444.619 235.5,445.5C 238.24,443.947 240.907,442.114 243.5,440C 246.167,439.333 248.833,439.333 251.5,440C 253.32,440.2 254.653,441.034 255.5,442.5 Z"/></g>
<g><path style="opacity:0.953" fill="#181e2a" d="M 260.5,441.5 C 260.784,443.415 260.451,445.081 259.5,446.5C 257.227,446.043 255.894,444.71 255.5,442.5C 256.652,443.625 257.652,443.625 258.5,442.5C 259.167,442.167 259.833,441.833 260.5,441.5 Z"/></g>
<g><path style="opacity:0.91" fill="#3e673a" d="M 464.5,405.5 C 464.833,405.5 465.167,405.5 465.5,405.5C 460.95,424.561 449.617,438.061 431.5,446C 428.673,446.701 426.006,447.701 423.5,449C 407.859,450.462 392.192,450.796 376.5,450C 375.584,449.722 374.918,449.222 374.5,448.5C 374.5,439.167 374.5,429.833 374.5,420.5C 374.833,420.5 375.167,420.5 375.5,420.5C 375.334,428.84 375.5,437.173 376,445.5C 376.519,446.516 377.353,447.182 378.5,447.5C 392.474,448.632 406.474,448.799 420.5,448C 422.713,446.384 425.047,445.217 427.5,444.5C 436.434,442.706 443.768,438.373 449.5,431.5C 452.888,427.751 456.055,423.751 459,419.5C 459.608,417.846 460.108,416.179 460.5,414.5C 461.344,412.157 462.344,409.824 463.5,407.5C 464.338,407.158 464.672,406.492 464.5,405.5 Z"/></g>
<g><path style="opacity:1" fill="#036403" d="M 74.5,445.5 C 125.481,446.477 176.481,446.811 227.5,446.5C 227.5,446.833 227.5,447.167 227.5,447.5C 177.832,447.667 128.166,447.5 78.5,447C 76.9419,446.79 75.6085,446.29 74.5,445.5 Z"/></g>
<g><path style="opacity:1" fill="#085f08" d="M 415.5,409.5 C 402.677,410.495 389.677,410.829 376.5,410.5C 376.626,420.849 377.126,431.182 378,441.5C 378.513,443.521 379.68,445.021 381.5,446C 392.5,446.667 403.5,446.667 414.5,446C 418.73,444.71 423.064,444.21 427.5,444.5C 425.047,445.217 422.713,446.384 420.5,448C 406.474,448.799 392.474,448.632 378.5,447.5C 377.353,447.182 376.519,446.516 376,445.5C 375.5,437.173 375.334,428.84 375.5,420.5C 375.5,416.833 375.5,413.167 375.5,409.5C 388.833,409.5 402.167,409.5 415.5,409.5 Z"/></g>
<g><path style="opacity:0.96" fill="#064c03" d="M 55.5,438.5 C 59.9881,440.11 64.3214,442.11 68.5,444.5C 70.396,445.466 72.396,445.799 74.5,445.5C 75.6085,446.29 76.9419,446.79 78.5,447C 128.166,447.5 177.832,447.667 227.5,447.5C 227.167,448.167 226.833,448.833 226.5,449.5C 225.833,449.167 225.167,448.833 224.5,448.5C 174.167,448.5 123.833,448.5 73.5,448.5C 71.4214,448.029 69.4214,447.363 67.5,446.5C 63.228,444.226 59.228,441.559 55.5,438.5 Z"/></g>
<g><path style="opacity:0.878" fill="#214b1f" d="M 21.5,428.5 C 22.391,429.11 23.391,429.443 24.5,429.5C 30.8333,439.167 38.8333,447.167 48.5,453.5C 43.1615,451.639 38.4949,448.472 34.5,444C 33.5,443.667 32.5,443.333 31.5,443C 27.2829,438.718 23.9495,433.884 21.5,428.5 Z"/></g>
<g><path style="opacity:0.355" fill="#42673b" d="M 73.5,448.5 C 123.833,448.5 174.167,448.5 224.5,448.5C 183.15,449.18 141.65,449.847 100,450.5C 92.4763,449.217 84.9763,449.217 77.5,450.5C 75.9745,450.006 74.6412,449.339 73.5,448.5 Z"/></g>
<g><path style="opacity:1" fill="#1a1668" d="M 258.5,458.5 C 257.812,469.038 257.145,479.705 256.5,490.5C 212.815,491.101 169.148,491.434 125.5,491.5C 111.161,490.816 96.8273,490.149 82.5,489.5C 81.9346,480.26 81.9346,471.26 82.5,462.5C 83.5,462.167 84.5,461.833 85.5,461.5C 88.0396,462.02 90.5396,462.687 93,463.5C 131.985,462.738 170.985,462.071 210,461.5C 215.745,461.511 221.412,461.844 227,462.5C 229.699,459.393 231.033,455.727 231,451.5C 232.332,449.34 233.832,447.34 235.5,445.5C 239.774,444.619 243.941,443.286 248,441.5C 249.561,441.603 251.061,441.937 252.5,442.5C 254.155,444.986 255.988,447.32 258,449.5C 258.498,452.482 258.665,455.482 258.5,458.5 Z"/></g>
<g><path style="opacity:0.784" fill="#366132" d="M 48.5,453.5 C 55.0189,456.767 61.6855,459.434 68.5,461.5C 66.5992,461.433 64.7659,461.767 63,462.5C 58.7005,459.934 54.2005,457.767 49.5,456C 48.7476,455.329 48.4142,454.496 48.5,453.5 Z"/></g>
<g><path style="opacity:0.54" fill="#494a6c" d="M 226.5,459.5 C 177.668,460.333 128.668,460.833 79.5,461C 78.5442,464.394 78.2108,467.894 78.5,471.5C 78.1667,471.5 77.8333,471.5 77.5,471.5C 77.5,467.5 77.5,463.5 77.5,459.5C 127.147,459.317 176.814,459.317 226.5,459.5 Z"/></g>
<g><path style="opacity:0.902" fill="#255922" d="M 8.5,407.5 C 11.4833,415.578 14.9833,423.578 19,431.5C 24.1245,438.293 29.6245,444.793 35.5,451C 39.1463,452.982 42.1463,455.649 44.5,459C 52.8113,465.327 62.1446,467.994 72.5,467C 72.3349,465.883 72.0016,464.716 71.5,463.5C 70.3984,462.824 69.3984,462.158 68.5,461.5C 71.2062,461.575 73.8728,461.908 76.5,462.5C 76.2627,461.209 76.596,460.209 77.5,459.5C 77.5,463.5 77.5,467.5 77.5,471.5C 76.5,471.5 75.5,471.5 74.5,471.5C 41.8447,466.024 20.178,447.691 9.5,416.5C 9.49205,413.455 9.15872,410.455 8.5,407.5 Z"/></g>
<g><path style="opacity:1" fill="#1a185a" d="M 235.5,445.5 C 233.832,447.34 232.332,449.34 231,451.5C 231.033,455.727 229.699,459.393 227,462.5C 221.412,461.844 215.745,461.511 210,461.5C 170.985,462.071 131.985,462.738 93,463.5C 90.5396,462.687 88.0396,462.02 85.5,461.5C 84.5,461.833 83.5,462.167 82.5,462.5C 81.9346,471.26 81.9346,480.26 82.5,489.5C 82.5,490.833 82.5,492.167 82.5,493.5C 81.5041,493.586 80.6708,493.252 80,492.5C 79.8238,488.312 79.3238,484.312 78.5,480.5C 78.5,477.5 78.5,474.5 78.5,471.5C 78.2108,467.894 78.5442,464.394 79.5,461C 128.668,460.833 177.668,460.333 226.5,459.5C 226.5,456.167 226.5,452.833 226.5,449.5C 226.833,448.833 227.167,448.167 227.5,447.5C 230.221,447.037 232.888,446.371 235.5,445.5 Z"/></g>
<g><path style="opacity:0.042" fill="#daeddb" d="M 431.5,461.5 C 427.79,463.136 423.79,463.802 419.5,463.5C 404.833,463.5 390.167,463.5 375.5,463.5C 394.015,462.769 412.682,462.102 431.5,461.5 Z"/></g>
<g><path style="opacity:0.184" fill="#a3a8a6" d="M 260.5,390.5 C 261.278,425.329 261.278,459.996 260.5,494.5C 260.828,482.655 260.495,470.988 259.5,459.5C 259.5,455.167 259.5,450.833 259.5,446.5C 260.451,445.081 260.784,443.415 260.5,441.5C 260.5,424.5 260.5,407.5 260.5,390.5 Z"/></g>
<g><path style="opacity:0.737" fill="#6c9366" d="M 375.5,463.5 C 390.167,463.5 404.833,463.5 419.5,463.5C 404.676,464.496 389.676,464.829 374.5,464.5C 374.5,466.833 374.5,469.167 374.5,471.5C 373.844,470.378 373.511,469.045 373.5,467.5C 373.585,465.667 374.252,464.334 375.5,463.5 Z"/></g>
<g><path style="opacity:1" fill="#2f6428" d="M 457.5,31.5 C 459.258,31.8769 460.925,32.5435 462.5,33.5C 466.882,38.0501 471.382,42.3834 476,46.5C 477.777,49.0594 479.277,51.7261 480.5,54.5C 482.353,62.2295 484.52,69.8961 487,77.5C 487.176,185.343 487.676,293.177 488.5,401C 485.168,413.478 480.835,425.645 475.5,437.5C 477.095,438.434 478.761,438.434 480.5,437.5C 467.357,456.258 449.357,467.758 426.5,472C 408.995,472.829 391.662,472.662 374.5,471.5C 374.5,469.167 374.5,466.833 374.5,464.5C 389.676,464.829 404.676,464.496 419.5,463.5C 423.79,463.802 427.79,463.136 431.5,461.5C 453.66,455.004 469.66,441.337 479.5,420.5C 481.584,417.947 482.917,414.947 483.5,411.5C 485.342,401.027 486.008,390.36 485.5,379.5C 485.667,279.166 485.5,178.833 485,78.5C 481.822,59.194 472.655,43.5273 457.5,31.5 Z"/></g>
<g><path style="opacity:1" fill="#176b17" d="M 473.5,437.5 C 474.598,438.601 474.765,439.934 474,441.5C 467.75,446.416 462.25,451.916 457.5,458C 453.953,458.307 450.62,459.14 447.5,460.5C 447.5,461.5 447.5,462.5 447.5,463.5C 445.473,463.338 443.473,463.505 441.5,464C 435.86,466.213 430.193,468.213 424.5,470C 409.837,470.5 395.17,470.667 380.5,470.5C 380.5,469.5 380.5,468.5 380.5,467.5C 399.284,467.388 417.951,465.888 436.5,463C 451.128,457.879 463.462,449.379 473.5,437.5 Z"/></g>
<g><path style="opacity:1" fill="#170953" d="M 258.5,458.5 C 258.5,458.833 258.5,459.167 258.5,459.5C 258.768,470.871 258.434,482.205 257.5,493.5C 199.167,493.5 140.833,493.5 82.5,493.5C 82.5,492.167 82.5,490.833 82.5,489.5C 96.8273,490.149 111.161,490.816 125.5,491.5C 169.148,491.434 212.815,491.101 256.5,490.5C 257.145,479.705 257.812,469.038 258.5,458.5 Z"/></g>
<g><path style="opacity:0.905" fill="#100631" d="M 258.5,459.5 C 258.833,459.5 259.167,459.5 259.5,459.5C 260.495,470.988 260.828,482.655 260.5,494.5C 199.833,494.5 139.167,494.5 78.5,494.5C 78.5,489.833 78.5,485.167 78.5,480.5C 79.3238,484.312 79.8238,488.312 80,492.5C 80.6708,493.252 81.5041,493.586 82.5,493.5C 140.833,493.5 199.167,493.5 257.5,493.5C 258.434,482.205 258.768,470.871 258.5,459.5 Z"/></g>
<g><path style="opacity:0.18" fill="#9d9db2" d="M 74.5,471.5 C 75.5,471.5 76.5,471.5 77.5,471.5C 77.8333,471.5 78.1667,471.5 78.5,471.5C 78.5,474.5 78.5,477.5 78.5,480.5C 78.5,485.167 78.5,489.833 78.5,494.5C 139.167,494.5 199.833,494.5 260.5,494.5C 199.669,495.499 138.669,495.832 77.5,495.5C 77.5,487.833 77.5,480.167 77.5,472.5C 76.209,472.737 75.209,472.404 74.5,471.5 Z"/></g>
</svg>
