<?xml version="1.0" standalone="no"?>
<!DOCTYPE svg PUBLIC "-//W3C//DTD SVG 20010904//EN"
 "http://www.w3.org/TR/2001/REC-SVG-20010904/DTD/svg10.dtd">
<svg version="1.0" xmlns="http://www.w3.org/2000/svg"
 width="500.000000pt" height="500.000000pt" viewBox="0 0 500.000000 500.000000"
 preserveAspectRatio="xMidYMid meet">

<g transform="translate(0.000000,500.000000) scale(0.100000,-0.100000)"
fill="#000000" stroke="none">
<path d="M2472 4952 c-813 -2 -834 -3 -839 -21 -5 -19 -21 -20 -451 -24 -483
-4 -498 -6 -635 -63 -166 -70 -317 -213 -398 -378 -85 -176 -80 -34 -77 -1904
l3 -1657 27 -74 c78 -211 201 -358 378 -454 67 -36 193 -79 267 -92 l43 -7 0
-114 0 -114 910 0 910 0 0 163 c-1 89 -5 194 -10 232 -5 43 -5 74 1 80 5 5 9
127 9 287 l0 278 -165 0 -165 0 0 -42 c0 -25 -8 -57 -20 -75 -40 -66 -9 -63
-755 -63 -733 0 -719 -1 -763 55 l-22 28 0 1591 0 1592 36 35 35 34 709 0 710
0 32 -33 c31 -30 33 -38 40 -120 3 -48 7 -122 7 -164 l1 -78 195 0 195 0 0
128 c1 160 9 198 54 240 l36 32 696 0 c675 0 698 -1 728 -20 65 -40 61 81 61
-1649 l0 -1576 -23 -33 c-42 -58 -60 -62 -282 -62 l-200 0 2 -202 3 -203 185
0 c269 0 322 9 431 66 137 71 254 224 280 363 6 36 9 604 7 1673 l-3 1618 -27
73 c-47 130 -112 210 -223 277 -119 72 -136 74 -640 77 l-450 4 0 89 0 90 420
3 c523 4 577 -3 747 -90 140 -72 284 -232 338 -375 53 -143 51 -73 48 -1810
l-3 -1608 -32 -91 c-67 -194 -201 -353 -364 -433 -138 -67 -172 -73 -461 -78
l-258 -5 0 -35 0 -34 278 3 c276 3 277 4 361 33 212 73 390 229 482 422 77
162 73 82 76 1453 4 1425 -6 2043 -31 2135 -76 274 -285 478 -571 557 -76 20
-106 22 -555 27 -463 6 -474 6 -480 26 -5 20 -12 20 -838 17z m-837 -208 l0
-87 -440 -1 c-479 -3 -484 -3 -604 -63 -123 -61 -246 -225 -271 -362 -13 -72
-14 -3213 0 -3296 13 -84 73 -196 139 -264 60 -60 157 -116 256 -147 68 -21 8
-20 925 -16 l635 3 0 -58 0 -58 -745 0 c-701 0 -745 -1 -748 -18 -4 -22 -21
-22 -110 3 -226 63 -405 227 -487 445 -55 144 -55 143 -55 1770 0 1602 1 1612
49 1749 43 120 128 243 225 324 75 63 218 130 323 151 78 16 135 18 498 15
l410 -4 0 -86z m770 -154 c3 -6 -1 -7 -9 -4 -18 7 -21 14 -7 14 6 0 13 -4 16
-10z m130 -30 c-3 -5 -11 -10 -16 -10 -6 0 -7 5 -4 10 3 6 11 10 16 10 6 0 7
-4 4 -10z m-180 -530 c3 -5 -3 -10 -14 -10 -12 0 -21 5 -21 10 0 6 6 10 14 10
8 0 18 -4 21 -10z m305 0 c0 -5 -10 -10 -22 -10 -19 0 -20 2 -8 10 19 13 30
13 30 0z m-85 -3450 c12 -19 -12 -10 -31 11 -19 22 -19 22 3 10 12 -6 25 -16
28 -21z m-155 6 c0 -2 -7 -7 -16 -10 -8 -3 -12 -2 -9 4 6 10 25 14 25 6z
m-1640 -256 c0 -5 -4 -10 -10 -10 -5 0 -10 5 -10 10 0 6 5 10 10 10 6 0 10 -4
10 -10z"/>
<path d="M3483 3943 c9 -2 23 -2 30 0 6 3 -1 5 -18 5 -16 0 -22 -2 -12 -5z"/>
<path d="M3418 3933 c7 -3 16 -2 19 1 4 3 -2 6 -13 5 -11 0 -14 -3 -6 -6z"/>
<path d="M3325 3898 c-48 -34 -86 -71 -96 -93 -5 -11 -16 -31 -25 -45 -9 -14
-2 -9 15 10 17 19 31 40 31 46 0 6 27 31 60 55 33 24 60 45 60 46 0 8 -18 0
-45 -19z"/>
<path d="M3735 3775 c9 -22 23 -67 30 -100 12 -53 14 -56 14 -23 1 37 -31 134
-51 153 -5 6 -2 -8 7 -30z"/>
<path d="M3190 3536 c0 -11 30 -66 36 -66 2 0 -3 15 -12 33 -19 36 -24 44 -24
33z"/>
<path d="M3060 3412 c-8 -2 -23 -11 -32 -20 -10 -8 -18 -10 -18 -5 0 10 -67
-8 -94 -24 -6 -4 -23 -8 -40 -10 -47 -5 -442 -141 -641 -221 -291 -116 -621
-293 -767 -411 -79 -64 -169 -164 -198 -221 -31 -61 -66 -193 -52 -198 7 -2
10 -13 6 -28 -12 -48 37 -179 76 -207 21 -14 21 -16 4 -73 -24 -85 -15 -163
30 -253 20 -40 48 -88 62 -107 47 -61 217 -151 271 -143 10 2 28 -1 41 -5 14
-5 29 -3 37 4 12 10 18 10 30 0 10 -8 15 -9 15 -1 0 6 12 14 28 17 158 38 382
228 583 495 167 221 336 484 425 661 21 40 51 96 69 123 17 28 64 118 104 200
41 83 91 185 113 228 22 43 38 81 35 83 -3 3 -42 -13 -88 -35 -46 -22 -162
-74 -257 -117 -96 -43 -193 -90 -216 -104 -23 -15 -71 -40 -107 -56 -35 -15
-80 -38 -99 -49 -19 -12 -80 -45 -135 -75 -55 -29 -125 -70 -155 -90 -30 -20
-76 -48 -102 -63 -26 -15 -67 -44 -92 -65 -61 -51 -156 -117 -170 -118 -28 -1
-326 -312 -326 -341 0 -6 -9 -18 -20 -28 -11 -10 -20 -25 -20 -34 0 -9 -9 -22
-20 -28 -15 -10 -22 -10 -34 2 -18 18 -55 115 -65 172 -13 66 28 201 84 278
56 77 152 175 174 175 9 0 29 11 44 25 15 14 27 23 27 19 0 -4 8 2 18 13 27
31 293 176 306 167 3 -2 4 -1 1 3 -5 7 169 94 290 145 85 36 375 140 465 166
236 71 279 85 310 99 19 9 47 18 63 19 24 4 26 2 15 -15 -7 -11 -15 -18 -19
-15 -4 2 -11 -1 -15 -7 -4 -8 -3 -9 4 -5 23 14 12 -9 -12 -28 -14 -10 -22 -24
-19 -32 3 -9 19 5 46 43 22 32 45 61 50 64 14 10 3 36 -13 31z"/>
<path d="M2588 3212 c-76 -25 -136 -47 -134 -50 5 -5 296 87 296 93 0 10 -28
2 -162 -43z"/>
<path d="M2228 3079 c-42 -21 -51 -34 -15 -20 66 27 91 40 72 40 -11 0 -37 -9
-57 -20z"/>
<path d="M1489 2353 c-13 -16 -12 -17 4 -4 9 7 17 15 17 17 0 8 -8 3 -21 -13z"/>
<path d="M1335 2160 c-3 -5 -1 -10 4 -10 6 0 11 5 11 10 0 6 -2 10 -4 10 -3 0
-8 -4 -11 -10z"/>
<path d="M1310 2130 c-9 -6 -10 -10 -3 -10 6 0 15 5 18 10 8 12 4 12 -15 0z"/>
</g>
</svg>
